STARTFONT 2.3
FONT -FontForge-Fredoka One-Book-R-Normal--28-280-72-72-P-162-ISO10646-1
SIZE 28 72 72  2
FONTBOUNDINGBOX 37 35 -4 -7
COMMENT "Generated by fontforge, http://fontforge.sourceforge.net"
COMMENT "Copyright (c) 2011 Milena B Brandao (milenabbrandao@gmail.com), with Reserved Font Name "Fredoka""
STARTPROPERTIES 40
FOUNDRY "FontForge"
FAMILY_NAME "Fredoka One"
WEIGHT_NAME "Book"
SLANT "R"
SETWIDTH_NAME "Normal"
ADD_STYLE_NAME ""
PIXEL_SIZE 28
POINT_SIZE 280
RESOLUTION_X 72
RESOLUTION_Y 72
SPACING "P"
AVERAGE_WIDTH 162
CHARSET_REGISTRY "ISO10646"
CHARSET_ENCODING "1"
FONTNAME_REGISTRY ""
CHARSET_COLLECTIONS "ISO10646-1"
BITS_PER_PIXEL 2
FONT_NAME "FredokaOne-Regular"
FACE_NAME "Fredoka One"
COPYRIGHT "Copyright (c) 2011 Milena B Brandao (milenabbrandao@gmail.com), with Reserved Font Name "Fredoka""
FONT_VERSION "1.001"
FONT_ASCENT 22
FONT_DESCENT 6
UNDERLINE_POSITION -3
UNDERLINE_THICKNESS 2
X_HEIGHT 14
CAP_HEIGHT 20
RAW_ASCENT 800
RAW_DESCENT 200
NORM_SPACE 7
RELATIVE_WEIGHT 40
RELATIVE_SETWIDTH 50
SUPERSCRIPT_X 0
SUPERSCRIPT_Y 13
SUPERSCRIPT_SIZE 18
SUBSCRIPT_X 0
SUBSCRIPT_Y 3
SUBSCRIPT_SIZE 18
AVG_LOWERCASE_WIDTH 160
AVG_UPPERCASE_WIDTH 192
ENDPROPERTIES
CHARS 235
STARTCHAR space
ENCODING 32
SWIDTH 253 0
DWIDTH 7 0
BBX 1 1 0 0
BITMAP
00
ENDCHAR
STARTCHAR exclam
ENCODING 33
SWIDTH 267 0
DWIDTH 7 0
BBX 6 21 1 0
BITMAP
2A40
BFC0
BFD0
BFD0
BFD0
BFD0
BFD0
BFD0
BFD0
BFD0
BFD0
BFD0
BFC0
1A40
0000
0400
7F80
BFD0
FFD0
BFD0
7F80
ENDCHAR
STARTCHAR quotedbl
ENCODING 34
SWIDTH 429 0
DWIDTH 12 0
BBX 12 10 0 11
BITMAP
150054
3FC2FC
7FC3FD
7FC3FD
7FC3FD
3FC3FC
3F82FC
2F82F8
1F41F4
0F00F0
ENDCHAR
STARTCHAR numbersign
ENCODING 35
SWIDTH 749 0
DWIDTH 21 0
BBX 21 21 0 0
BITMAP
000150015000
000BF00BF400
000FF00BF400
000FF00FF000
001FE00FF000
002FE01FE000
0FFFFFFFFF40
1FFFFFFFFF40
1FFFFFFFFF40
06BFEABFE900
007F803FC000
007F807F8000
15BF95BF9400
7FFFFFFFFD00
BFFFFFFFFD00
BFFFFFFFFC00
16FE55FF5000
01FE01FE0000
02FD01FE0000
02FD02FD0000
01F801F80000
ENDCHAR
STARTCHAR dollar
ENCODING 36
SWIDTH 475 0
DWIDTH 13 0
BBX 13 25 0 -3
BITMAP
00190000
003F4000
003F4000
003F4000
01FFE000
0BFFFD00
1FFFFE00
2FE6FC00
3FC06400
3FD00000
2FFE4000
0FFFF800
07FFFE00
006FFF40
0001BF80
1F407F80
7FD1FF40
3FFFFF00
1FFFFD00
07FFF400
007F4000
003F4000
003F4000
002F0000
00040000
ENDCHAR
STARTCHAR percent
ENCODING 37
SWIDTH 838 0
DWIDTH 23 0
BBX 22 23 1 -1
BITMAP
000000028000
01A40007D000
1FFF000BC000
3FFF801F4000
BFBFD03F0000
BD0BD07D0000
FD0BE0FC0000
BD0BE1F40000
BFAFD3E00000
7FFFCBD00000
1FFF4F800000
06A92F415000
00003E1FFE00
0000BC7FFF40
0000F8BFFFC0
0002F0FD0FD0
0007E0FC0BD0
000BC0FC0BD0
001F40FE6FC0
002F00BFFFC0
007D003FFF40
00BC000BF900
006400000000
ENDCHAR
STARTCHAR ampersand
ENCODING 38
SWIDTH 748 0
DWIDTH 21 0
BBX 21 23 0 -1
BITMAP
000554000000
006FFF800000
01FFFFE00000
02FFFFF40000
03FE5FF80000
07FD0BF80000
03FD1FF80000
03FEBFF40000
02FFFFE00000
01FFFF800000
01FFFD000000
07FFF4005000
0FFFF807FC00
2FFFFD0BFC00
3FFBFF8FF800
7FE3FFFFF400
7FE1FFFFF000
7FF47FFFE900
3FFFFFFFFF00
1FFFFFFFFF40
0BFFFFFFFF40
01BFFE06FE00
000140000000
ENDCHAR
STARTCHAR quotesingle
ENCODING 39
SWIDTH 208 0
DWIDTH 6 0
BBX 5 10 0 11
BITMAP
1500
3FC0
7FC0
7FC0
7FC0
3FC0
3F80
2F80
1F40
0F00
ENDCHAR
STARTCHAR parenleft
ENCODING 40
SWIDTH 384 0
DWIDTH 11 0
BBX 10 29 1 -7
BITMAP
001A80
00BFD0
02FFD0
0BFF80
0FF400
2FE000
3FD000
7FC000
7F8000
BF4000
FF4000
FF4000
FF0000
FF0000
FF0000
FF0000
FF0000
FF4000
BF4000
BF4000
7F8000
3FC000
2FD000
1FF000
0FF900
07FFC0
01FFD0
007FD0
000540
ENDCHAR
STARTCHAR parenright
ENCODING 41
SWIDTH 384 0
DWIDTH 11 0
BBX 10 29 0 -7
BITMAP
2A0000
7FE000
BFF400
7FFD00
02FE00
00FF40
00BF80
003FC0
003FD0
002FD0
002FE0
001FE0
001FE0
001FF0
001FF0
001FF0
001FE0
001FE0
002FE0
002FD0
003FC0
007FC0
00BF40
00FF00
07FE00
7FFC00
BFF400
7F9000
150000
ENDCHAR
STARTCHAR asterisk
ENCODING 42
SWIDTH 503 0
DWIDTH 14 0
BBX 14 13 0 8
BITMAP
002A8000
003FD000
007FD000
2EBFEB80
7FFFFFD0
7FFFFFE0
7FFFFFE0
1BFFFE40
03FFFC00
0BFFFE00
0FFFFF00
0BF5FE00
02E0B800
ENDCHAR
STARTCHAR plus
ENCODING 43
SWIDTH 527 0
DWIDTH 15 0
BBX 14 14 0 1
BITMAP
00054000
002FD000
002FE000
002FE000
002FE000
2FFFFFD0
7FFFFFF0
7FFFFFF0
3FFFFFF0
1ABFEA90
002FE000
002FE000
002FE000
001FD000
ENDCHAR
STARTCHAR comma
ENCODING 44
SWIDTH 238 0
DWIDTH 7 0
BBX 6 11 0 -5
BITMAP
0100
2FD0
7FF0
7FF0
7FF0
2FE0
0BD0
0FC0
3F40
7E00
1400
ENDCHAR
STARTCHAR hyphen
ENCODING 45
SWIDTH 433 0
DWIDTH 12 0
BBX 12 5 0 4
BITMAP
055550
3FFFFD
7FFFFD
7FFFFD
2FFFFC
ENDCHAR
STARTCHAR period
ENCODING 46
SWIDTH 237 0
DWIDTH 7 0
BBX 6 6 0 0
BITMAP
0100
2FD0
7FF0
7FF0
7FF0
2FD0
ENDCHAR
STARTCHAR slash
ENCODING 47
SWIDTH 526 0
DWIDTH 15 0
BBX 15 24 0 -2
BITMAP
00000B80
00001FF0
00002FF4
00007FF0
0000BFD0
0001FFC0
0002FF40
0003FF00
000BFE00
000FFC00
002FF800
003FF000
00BFE000
00FFC000
01FF8000
03FF0000
07FE0000
0FFD0000
1FF80000
3FF40000
7FE00000
BFD00000
7F800000
06000000
ENDCHAR
STARTCHAR zero
ENCODING 48
SWIDTH 608 0
DWIDTH 17 0
BBX 17 22 0 -1
BITMAP
001AA90000
00BFFF8000
02FFFFE000
0BFFFFF800
0FFFFFFC00
1FFD1FFD00
2FF407FE00
3FF003FF00
3FE002FF00
7FE002FF40
7FE002FF40
7FE002FF40
7FE002FF40
3FF003FF00
3FF403FF00
2FF80BFE00
1FFEAFFD00
0FFFFFFC00
07FFFFF400
01FFFFD000
006FFE4000
0001500000
ENDCHAR
STARTCHAR one
ENCODING 49
SWIDTH 407 0
DWIDTH 11 0
BBX 11 21 0 0
BITMAP
000150
001FF0
007FF4
01FFF4
0BFFF4
2FFFF4
7FFFF4
7FFFF4
3FFFF4
0A6FF4
002FF4
002FF4
002FF4
002FF4
002FF4
002FF4
002FF4
002FF4
002FF4
002FF4
001FE0
ENDCHAR
STARTCHAR two
ENCODING 50
SWIDTH 609 0
DWIDTH 17 0
BBX 17 21 0 0
BITMAP
001AA40000
01FFFF8000
07FFFFE000
0FFFFFF400
2FFFFFFC00
3FF91FFD00
7FF007FE00
7FE007FE00
7FE007FE00
2FD00FFE00
01003FFD00
0001FFF800
001BFFF000
00BFFFC000
02FFFE0000
0FFFE40000
2FFFFFFE00
3FFFFFFF80
7FFFFFFF80
3FFFFFFF80
1FFFFFFF00
ENDCHAR
STARTCHAR three
ENCODING 51
SWIDTH 608 0
DWIDTH 17 0
BBX 17 22 0 -1
BITMAP
001AA90000
01FFFFD000
07FFFFF400
0BFFFFFC00
1FFFFFFD00
1FFD0BFE00
0FF403FF00
01905BFE00
0007FFFD00
000BFFF800
000BFFF400
000BFFFD00
0001AFFE00
1A8007FF40
7FE002FF40
7FF003FF40
3FFEAFFF00
2FFFFFFE00
0FFFFFFC00
03FFFFE000
007FFF4000
0001500000
ENDCHAR
STARTCHAR four
ENCODING 52
SWIDTH 592 0
DWIDTH 17 0
BBX 16 21 0 0
BITMAP
019401A4
03FD07FD
07FE0BFD
07FE0BFD
0BFD0BFD
0FFC0BFD
1FFC0BFD
1FF80BFD
2FF40BFD
3FF00BFD
7FFAABFD
7FFFFFFD
BFFFFFFD
BFFFFFFD
2FFFFFFD
00000BFD
00000BFD
00000BFD
00000BFD
000007FD
000002F8
ENDCHAR
STARTCHAR five
ENCODING 53
SWIDTH 530 0
DWIDTH 15 0
BBX 14 22 0 -1
BITMAP
01AAAA40
0BFFFFD0
0FFFFFE0
1FFFFFE0
1FFFFFD0
1FF95540
2FF40000
2FFA4000
3FFFF800
3FFFFF00
3FFFFFC0
7FFFFFE0
1FF5FFF0
01403FF0
00003FF0
1F407FF0
3FFAFFE0
BFFFFFD0
7FFFFF80
1FFFFE00
02FFF800
00154000
ENDCHAR
STARTCHAR six
ENCODING 54
SWIDTH 560 0
DWIDTH 16 0
BBX 15 22 0 -1
BITMAP
00001550
0002FFF4
002FFFF4
00BFFFF4
02FFFFF0
07FFF950
0BFF4000
1FFD0000
2FF84000
3FFFFD00
3FFFFF80
7FFFFFE0
7FFFFFF4
7FF96FF8
7FF00FFC
3FF00FFC
2FF96FF8
1FFFFFF4
0BFFFFE0
03FFFF80
00BFFD00
00055000
ENDCHAR
STARTCHAR seven
ENCODING 55
SWIDTH 561 0
DWIDTH 16 0
BBX 16 21 0 0
BITMAP
16AAAA50
7FFFFFFC
BFFFFFFD
BFFFFFFD
7FFFFFFC
15557FF8
00007FF4
0000FFE0
0002FFD0
0007FF80
000BFF00
001FFD00
003FF800
007FF400
00BFE000
00FFD000
01FF8000
02FF4000
02FF4000
02FF4000
01FE0000
ENDCHAR
STARTCHAR eight
ENCODING 56
SWIDTH 582 0
DWIDTH 16 0
BBX 16 22 0 -1
BITMAP
001BE800
01FFFF40
07FFFFE0
0FFFFFF4
1FFFFFF8
2FF81FFC
2FF40FFC
2FF92FF8
0FFFFFF4
07FFFFE0
0BFFFFE0
1FFFFFF8
3FFE6FFC
7FF00BFD
7FE007FE
7FF00BFD
3FFD6FFD
2FFFFFFC
0FFFFFF4
02FFFFD0
007FFE00
00055000
ENDCHAR
STARTCHAR nine
ENCODING 57
SWIDTH 560 0
DWIDTH 16 0
BBX 15 21 0 0
BITMAP
002BA400
02FFFF40
0BFFFFC0
1FFFFFE0
3FFEFFF4
3FF01FF8
7FE00FF8
7FF01FFC
3FFEBFFC
1FFFFFFC
0BFFFFFC
02FFFFF8
001AAFF4
00003FF4
0000FFE0
0007FFD0
1BFFFF80
2FFFFE00
2FFFF800
2FFFD000
1FF90000
ENDCHAR
STARTCHAR colon
ENCODING 58
SWIDTH 238 0
DWIDTH 7 0
BBX 6 14 0 0
BITMAP
2FD0
7FF0
7FF0
7FF0
2FD0
0000
0000
0000
0100
2FD0
7FF0
7FF0
7FF0
2FD0
ENDCHAR
STARTCHAR semicolon
ENCODING 59
SWIDTH 237 0
DWIDTH 7 0
BBX 6 19 0 -5
BITMAP
2FD0
7FF0
7FF0
7FF0
2FD0
0000
0000
0000
0100
2FD0
7FF0
7FF0
7FF0
2FE0
0BD0
0FC0
2F40
7E00
1400
ENDCHAR
STARTCHAR less
ENCODING 60
SWIDTH 627 0
DWIDTH 18 0
BBX 17 19 0 0
BITMAP
0000002F40
000002FF80
00001FFFC0
0000BFFF80
000BFFFD00
007FFFE000
06FFFE0000
2FFFF40000
7FFF800000
BFFE000000
7FFF900000
1FFFF80000
01FFFF4000
002FFFE400
0006FFFE00
00007FFFC0
00000BFFC0
000001BF80
0000001A00
ENDCHAR
STARTCHAR equal
ENCODING 61
SWIDTH 478 0
DWIDTH 13 0
BBX 13 11 0 1
BITMAP
05555500
3FFFFF40
7FFFFF80
7FFFFF80
2FFFFE40
00000000
05555500
3FFFFF40
7FFFFF80
7FFFFF80
2AAAAA40
ENDCHAR
STARTCHAR greater
ENCODING 62
SWIDTH 627 0
DWIDTH 18 0
BBX 17 20 0 0
BITMAP
0400000000
2F40000000
7FE4000000
BFFE000000
7FFFD00000
0BFFFD0000
01BFFF8000
001FFFF400
0002FFFF40
00006FFFC0
00000FFFC0
00007FFF80
0007FFFE00
002FFFE400
02FFFF4000
1FFFF80000
7FFF900000
BFFD000000
3FE0000000
1E00000000
ENDCHAR
STARTCHAR question
ENCODING 63
SWIDTH 512 0
DWIDTH 14 0
BBX 14 21 0 0
BITMAP
00BFE000
07FFFD00
1FFFFF40
3FFFFFC0
7FFABFD0
BFC03FE0
2F802FE0
01007FD0
0006FFD0
001FFF80
003FFE00
003FF400
003FD000
001A4000
00000000
00010000
003FD000
00BFE000
00BFE000
007FE000
002F8000
ENDCHAR
STARTCHAR at
ENCODING 64
SWIDTH 908 0
DWIDTH 25 0
BBX 25 23 0 -4
BITMAP
00005AA9000000
0006FFFFE40000
002FFFFFFF4000
01FFFEBFFFD000
03FF90017FF400
0BF801414BFC00
1FE02FFBE1FE00
2FD0BFFFE0BF00
3F82FFFFE07F40
3F43FD7FD03F80
7F47F41FD03F80
7F4BF02FD02F80
7F47F9BFC03F80
3F47FFFFC03F80
3F82FFFF807F40
2FC0BFBF81FF00
1FE0053F9BFD00
0FF4002FFFF800
07FE400FFFE000
02FFFF86FE4000
007FFFC0000000
000BFFC0000000
00005A40000000
ENDCHAR
STARTCHAR A
ENCODING 65
SWIDTH 765 0
DWIDTH 21 0
BBX 21 22 0 -1
BITMAP
000015000000
00007F800000
0000BFD00000
0001FFE00000
0002FFF40000
0007FFF80000
000BFFFD0000
001FFFFE0000
002FFFFF0000
007FF7FF8000
00BFE1FFC000
01FFD0FFE000
02FFEABFF000
03FFFFFFF800
0BFFFFFFFC00
0FFFFFFFFE00
2FFEAAABFF00
3FF40003FF40
7FF00002FFC0
7FD00000FF80
1F8000007E00
010000001000
ENDCHAR
STARTCHAR B
ENCODING 66
SWIDTH 646 0
DWIDTH 18 0
BBX 17 21 1 0
BITMAP
1AAAA50000
BFFFFFD000
FFFFFFF400
FFFFFFFC00
FFFFFFFD00
FFD55BFE00
FFC007FE00
FFC007FE00
FFC0AFFD00
FFC2FFFC00
FFC2FFFC00
FFC2FFFE00
FFC057FF00
FFC002FF40
FFC002FF40
FFC007FF40
FFFFFFFF00
FFFFFFFE00
FFFFFFFC00
BFFFFFF000
7FFFFE4000
ENDCHAR
STARTCHAR C
ENCODING 67
SWIDTH 679 0
DWIDTH 19 0
BBX 19 22 0 -1
BITMAP
00006A9000
000BFFFE40
007FFFFFE0
01FFFFFFF4
07FFFFFFF0
0FFFE56FE0
1FFE000680
2FF8000000
3FF0000000
7FE0000000
7FE0000000
7FE0000000
3FF0000000
3FF4000000
2FFC000100
0FFF401BC0
0BFFFAFFE0
02FFFFFFF4
00BFFFFFF0
001FFFFF90
0002FFF900
0000054000
ENDCHAR
STARTCHAR D
ENCODING 68
SWIDTH 704 0
DWIDTH 20 0
BBX 18 21 1 0
BITMAP
1AAA500000
BFFFFE4000
FFFFFFE000
FFFFFFFC00
FFFFFFFE00
FFD5AFFF80
FFC007FFC0
FFC000FFD0
FFC0007FE0
FFC0003FF0
FFC0003FF0
FFC0003FF0
FFC0007FE0
FFC000BFE0
FFC002FFD0
FFC01BFF80
FFFFFFFF40
FFFFFFFD00
FFFFFFF400
BFFFFF9000
7FFFE90000
ENDCHAR
STARTCHAR E
ENCODING 69
SWIDTH 638 0
DWIDTH 18 0
BBX 16 21 1 0
BITMAP
1AAAAAA4
BFFFFFFF
BFFFFFFF
FFFFFFFF
FFFFFFFF
FFD55554
FFC00000
FFC00000
FFEAAA40
FFFFFFC0
FFFFFFC0
FFFFFFC0
FFFFFF80
FFD55400
FFC00000
FFC00000
FFFFFFFD
FFFFFFFF
FFFFFFFF
BFFFFFFF
7FFFFFFE
ENDCHAR
STARTCHAR F
ENCODING 70
SWIDTH 637 0
DWIDTH 18 0
BBX 16 21 1 0
BITMAP
1AAAAAA4
BFFFFFFF
BFFFFFFF
FFFFFFFF
FFFFFFFF
FFD55554
FFC00000
FFC00000
FFEAAA40
FFFFFFC0
FFFFFFC0
FFFFFFC0
FFFFFF80
FFD55500
FFC00000
FFC00000
FFC00000
FFC00000
FFC00000
BFC00000
7F400000
ENDCHAR
STARTCHAR G
ENCODING 71
SWIDTH 714 0
DWIDTH 20 0
BBX 19 22 0 -1
BITMAP
0001ABA400
001BFFFF40
007FFFFFE0
02FFFFFFF0
07FFFFFFF0
0FFF906FD0
2FFD000640
3FF8000000
3FF0015550
7FE00FFFF8
7FE00FFFFC
7FE00FFFFC
3FF006AFFC
3FF4000FFC
2FFD000FFC
0FFF400FFC
0BFFFAFFFC
02FFFFFFF8
00BFFFFFF4
002FFFFFD0
0002FFFA00
0000054000
ENDCHAR
STARTCHAR H
ENCODING 72
SWIDTH 699 0
DWIDTH 20 0
BBX 18 21 1 0
BITMAP
1900001940
BFC0007FD0
FFC0007FD0
FFC000BFD0
FFC000BFD0
FFC000BFD0
FFC000BFD0
FFC000BFD0
FFD555BFD0
FFFFFFFFD0
FFFFFFFFD0
FFFFFFFFD0
FFEAAAFFD0
FFC000BFD0
FFC000BFD0
FFC000BFD0
FFC000BFD0
FFC000BFD0
FFC0007FD0
BFC0007FD0
7F40002F80
ENDCHAR
STARTCHAR I
ENCODING 73
SWIDTH 257 0
DWIDTH 7 0
BBX 5 21 1 0
BITMAP
1900
BFC0
FFC0
FFC0
FFC0
FFC0
FFC0
FFC0
FFC0
FFC0
FFC0
FFC0
FFC0
FFC0
FFC0
FFC0
FFC0
FFC0
FFC0
BFC0
7F40
ENDCHAR
STARTCHAR J
ENCODING 74
SWIDTH 549 0
DWIDTH 15 0
BBX 15 22 0 -1
BITMAP
00000650
00001FF0
00002FF4
00002FF4
00002FF4
00002FF4
00002FF4
00002FF4
00002FF4
00002FF4
00002FF4
00002FF4
00002FF4
00002FF4
05003FF4
2F807FF0
7FFBFFE0
7FFFFFD0
3FFFFF80
0FFFFE00
01FFE400
00050000
ENDCHAR
STARTCHAR K
ENCODING 75
SWIDTH 639 0
DWIDTH 18 0
BBX 16 21 1 0
BITMAP
190000A0
BFC003FD
FFC00BFE
FFC02FFE
FFC0BFFC
FFC1FFF4
FFC7FFD0
FFDFFF40
FFFFFD00
FFFFF400
FFFFD000
FFFFE000
FFFFF800
FFEFFE00
FFCBFF80
FFC2FFE0
FFC0FFF8
FFC03FFD
FFC01FFF
BFC007FE
7F4001F8
ENDCHAR
STARTCHAR L
ENCODING 76
SWIDTH 587 0
DWIDTH 16 0
BBX 15 21 1 0
BITMAP
19000000
BFC00000
FFC00000
FFC00000
FFC00000
FFC00000
FFC00000
FFC00000
FFC00000
FFC00000
FFC00000
FFC00000
FFC00000
FFC00000
FFC00000
FFC00000
FFD00000
FFFFFFF4
FFFFFFF8
BFFFFFF8
7FFFFFF4
ENDCHAR
STARTCHAR M
ENCODING 77
SWIDTH 870 0
DWIDTH 24 0
BBX 23 21 1 0
BITMAP
150000000540
BFC000002FF0
FFE000007FF4
FFF80001FFF4
FFFD0003FFF4
FFFF000BFFF4
FFFF802FFFF4
FFFFE07FFFF4
FFFFF4FFFFF4
FFEFFEFFEFF4
FFCFFFFF6FF4
FFC7FFFD2FF4
FFC1FFF82FF4
FFC0BFF02FF4
FFC03FD02FF4
FFC00A402FF4
FFC000002FF4
FFC000002FF4
FFC000002FF4
BFC000002FF0
7F4000001BE0
ENDCHAR
STARTCHAR N
ENCODING 78
SWIDTH 720 0
DWIDTH 20 0
BBX 18 21 1 0
BITMAP
1500000540
BFC0002FE0
FFE0003FF0
FFF8003FF0
FFFD003FF0
FFFF003FF0
FFFF803FF0
FFFFD03FF0
FFFFF43FF0
FFEFFC3FF0
FFDFFE3FF0
FFC7FF7FF0
FFC2FFFFF0
FFC0BFFFF0
FFC03FFFF0
FFC01FFFF0
FFC00BFFF0
FFC002FFF0
FFC000FFF0
BFC0007FF0
7F40001FD0
ENDCHAR
STARTCHAR O
ENCODING 79
SWIDTH 775 0
DWIDTH 22 0
BBX 21 22 0 -1
BITMAP
00006A900000
001BFFFE0000
007FFFFFD000
01FFFFFFF400
07FFFFFFFC00
0FFF95BFFE00
1FFE000BFF40
2FF80003FF80
3FF00001FF80
7FE00000FFC0
7FE00000FFC0
7FE00000FFC0
3FF00001FFC0
3FF40002FF80
2FFC0007FF40
1FFF401FFF00
0BFFFAFFFD00
03FFFFFFF800
00FFFFFFE000
002FFFFF8000
0006FFF90000
000015400000
ENDCHAR
STARTCHAR P
ENCODING 80
SWIDTH 632 0
DWIDTH 18 0
BBX 16 21 1 0
BITMAP
1AAA9400
BFFFFF40
FFFFFFE0
FFFFFFF8
FFFFFFFD
FFD56FFE
FFC007FF
FFC003FF
FFC003FF
FFC00BFE
FFEAAFFE
FFFFFFFC
FFFFFFF4
FFFFFFD0
FFFFFE00
FFD55000
FFC00000
FFC00000
FFC00000
BFC00000
7F400000
ENDCHAR
STARTCHAR Q
ENCODING 81
SWIDTH 830 0
DWIDTH 23 0
BBX 23 22 0 -1
BITMAP
00006A900000
001BFFFE0000
007FFFFFD000
01FFFFFFF400
07FFFFFFFC00
0FFF95BFFE00
1FFE000BFF00
2FF80003FF40
3FF00001FF80
7FE00000FFC0
7FE00000FFC0
7FE00000FFC0
3FF00001FFC0
3FF40002FF80
2FFC0007FF40
1FFF401FFF40
0BFFFAFFFFE0
03FFFFFFFFF8
00FFFFFFFFF8
002FFFFFAFF4
0006FFF907E0
000015400040
ENDCHAR
STARTCHAR R
ENCODING 82
SWIDTH 631 0
DWIDTH 18 0
BBX 16 21 1 0
BITMAP
1AAA9400
BFFFFF40
FFFFFFE0
FFFFFFF8
FFFFFFFD
FFD56FFE
FFC007FF
FFC003FF
FFC003FF
FFC00BFF
FFEAAFFE
FFFFFFFC
FFFFFFF4
FFFFFFF0
FFFFFFF8
FFD56FFC
FFC00FFD
FFC00BFE
FFC007FF
BFC002FF
7F4001F9
ENDCHAR
STARTCHAR S
ENCODING 83
SWIDTH 583 0
DWIDTH 16 0
BBX 16 22 0 -1
BITMAP
002AA900
02FFFF80
0BFFFFF0
1FFFFFF4
2FFEBFF0
3FF40BD0
3FF00100
2FF80000
2FFFA400
0FFFFF80
07FFFFF4
00BFFFFC
0006FFFD
00001FFE
0B8007FE
2FE00BFE
7FFD6FFD
3FFFFFFC
1FFFFFF4
07FFFFD0
00BFFE00
00014000
ENDCHAR
STARTCHAR T
ENCODING 84
SWIDTH 731 0
DWIDTH 20 0
BBX 20 21 0 0
BITMAP
1AAAAAAAA9
7FFFFFFFFF
BFFFFFFFFF
7FFFFFFFFF
1AAAFFEAA5
0001FF8000
0001FF8000
0001FF8000
0001FF8000
0001FF8000
0001FF8000
0001FF8000
0001FF8000
0001FF8000
0001FF8000
0001FF8000
0001FF8000
0001FF8000
0001FF8000
0000FF8000
0000BF4000
ENDCHAR
STARTCHAR U
ENCODING 85
SWIDTH 726 0
DWIDTH 20 0
BBX 19 22 1 -1
BITMAP
1900000640
BFC0002FF0
FFC0002FF4
FFC0002FF4
FFC0002FF4
FFC0002FF4
FFC0002FF4
FFC0002FF4
FFC0002FF4
FFC0002FF4
FFC0002FF4
FFC0002FF4
BFD0003FF0
BFD0003FF0
7FF000BFE0
3FF801FFD0
2FFFAFFFC0
0FFFFFFF40
07FFFFFE00
01FFFFF800
002FFF9000
0000540000
ENDCHAR
STARTCHAR V
ENCODING 86
SWIDTH 783 0
DWIDTH 22 0
BBX 22 21 0 0
BITMAP
064000001900
3FC000007F80
BFE00000BFD0
7FF00000FFD0
3FF80002FF80
1FFC0003FF40
0FFD000BFE00
07FF000FFD00
03FF401FF800
01FF803FF400
00FFD07FE000
007FE0BFD000
003FF5FFC000
001FFAFF4000
000FFFFF0000
0007FFFD0000
0003FFFC0000
0001FFF40000
0000FFF00000
00007FD00000
00002F400000
ENDCHAR
STARTCHAR W
ENCODING 87
SWIDTH 999 0
DWIDTH 28 0
BBX 28 21 0 0
BITMAP
06400014000190
7FC000FF0007FD
BFE002FF400BFE
7FF003FF800FFD
3FF407FFC01FFC
2FF80BFFD02FF8
1FFC0FFFE03FF4
0FFC1FFFF07FF0
0BFD2FFFF4BFE0
07FE3FFFF8FFD0
03FF7FEFFDFFC0
02FFFFDBFFFF80
01FFFFC3FFFF40
00FFFF82FFFF00
00BFFF41FFFE00
007FFF00FFFC00
003FFE00BFF800
002FFD007FF400
000FFC003FF000
000BF8002FE000
0002E0000B8000
ENDCHAR
STARTCHAR X
ENCODING 88
SWIDTH 741 0
DWIDTH 21 0
BBX 21 22 0 -1
BITMAP
0B400000B800
3FD00002FE00
BFF4000BFF40
7FFD001FFF00
2FFF007FFD00
0BFFC1FFF400
02FFE3FFD000
00BFFFFF8000
002FFFFE0000
000FFFF80000
0007FFF00000
000BFFF80000
002FFFFD0000
00BFFFFF4000
02FFF7FFD000
07FFD1FFF400
1FFF407FFC00
3FFD002FFF00
BFF8000BFF40
7FE00002FF00
1F800000F800
010000001000
ENDCHAR
STARTCHAR Y
ENCODING 89
SWIDTH 686 0
DWIDTH 19 0
BBX 19 21 0 0
BITMAP
0640000680
3FD0000FF4
BFF0002FF8
7FF4007FF8
2FFC00FFF0
0FFE02FFD0
07FF47FF80
02FFCBFF00
00FFFFFD00
007FFFF800
002FFFF000
000FFFD000
0007FF8000
0003FF0000
0003FF0000
0003FF0000
0003FF0000
0003FF0000
0003FF0000
0002FF0000
0001FE0000
ENDCHAR
STARTCHAR Z
ENCODING 90
SWIDTH 643 0
DWIDTH 18 0
BBX 18 21 0 0
BITMAP
1AAAAAA900
3FFFFFFF40
7FFFFFFFC0
7FFFFFFF80
3FFFFFFF40
05556FFE00
00007FFC00
0000BFF400
0002FFD000
0007FF8000
000FFF0000
002FFD0000
007FF80000
01FFE00000
03FFD00000
0BFF400000
1FFFAAAA40
3FFFFFFFC0
7FFFFFFFD0
3FFFFFFFD0
1FFFFFFF80
ENDCHAR
STARTCHAR bracketleft
ENCODING 91
SWIDTH 348 0
DWIDTH 10 0
BBX 9 29 1 -7
BITMAP
2AAA00
BFFF40
FFFF40
FFFF40
FF9500
FF8000
FF8000
FF8000
FF8000
FF8000
FF8000
FF8000
FF8000
FF8000
FF8000
FF8000
FF8000
FF8000
FF8000
FF8000
FF8000
FF8000
FF8000
FF8000
FFEA00
FFFF40
BFFF40
BFFF00
155500
ENDCHAR
STARTCHAR backslash
ENCODING 92
SWIDTH 528 0
DWIDTH 15 0
BBX 15 24 0 -2
BITMAP
1B400000
7FC00000
BFE00000
3FF00000
2FF40000
1FFC0000
0BFD0000
07FF0000
02FF4000
01FFC000
00BFD000
007FE000
003FF400
001FF800
000FFD00
0007FE00
0003FF40
0001FF80
0000FFD0
00007FE0
00003FF0
00002FF4
00000FE0
00000640
ENDCHAR
STARTCHAR bracketright
ENCODING 93
SWIDTH 348 0
DWIDTH 10 0
BBX 9 29 0 -7
BITMAP
2AA900
BFFF40
BFFF80
7FFF80
15FF80
00FF80
00FF80
00FF80
00FF80
00FF80
00FF80
00FF80
00FF80
00FF80
00FF80
00FF80
00FF80
00FF80
00FF80
00FF80
00FF80
00FF80
00FF80
00FF80
2AFF80
BFFF80
BFFF80
7FFF40
155500
ENDCHAR
STARTCHAR asciicircum
ENCODING 94
SWIDTH 526 0
DWIDTH 15 0
BBX 13 9 1 7
BITMAP
00040000
003E0000
00FF8000
03FFE000
0FFFF800
3FFBFE00
BFD2FF40
BF40BF40
2D002D00
ENDCHAR
STARTCHAR underscore
ENCODING 95
SWIDTH 826 0
DWIDTH 23 0
BBX 23 5 0 -7
BITMAP
155555555550
7FFFFFFFFFF8
BFFFFFFFFFF8
7FFFFFFFFFF8
155555555550
ENDCHAR
STARTCHAR grave
ENCODING 96
SWIDTH 482 0
DWIDTH 14 0
BBX 9 6 2 16
BITMAP
190000
3FE400
7FFF80
7FFFC0
1BFF80
006F40
ENDCHAR
STARTCHAR a
ENCODING 97
SWIDTH 596 0
DWIDTH 17 0
BBX 16 15 0 0
BITMAP
001A91A8
01FFFBFD
07FFFFFE
0FFFFFFE
2FFFFFFE
3FF96FFE
7FF00BFE
7FE00BFE
7FE00BFE
3FF81FFE
2FFFFFFE
1FFFFFFE
07FFFFFE
01FFFBFD
002F92F8
ENDCHAR
STARTCHAR b
ENCODING 98
SWIDTH 592 0
DWIDTH 17 0
BBX 15 22 1 0
BITMAP
2A000000
BFC00000
FFC00000
FFC00000
FFC00000
FFC00000
FFC00000
FFC6A400
FFEFFE00
FFFFFF80
FFFFFFE0
FFFFFFF0
FFF57FF8
FFD01FF8
FFC00FFC
FFD01FF8
FFF47FF8
FFFFFFF4
FFFFFFE0
FFFFFFC0
BFFFFE00
7F4BE400
ENDCHAR
STARTCHAR c
ENCODING 99
SWIDTH 517 0
DWIDTH 14 0
BBX 14 15 0 0
BITMAP
001BE900
01FFFF80
07FFFFE0
0FFFFFE0
2FFFFFD0
3FF91F40
7FF00000
7FE00000
7FF00000
3FF81A40
2FFFFFC0
1FFFFFE0
07FFFFE0
01FFFF80
002FF900
ENDCHAR
STARTCHAR d
ENCODING 100
SWIDTH 598 0
DWIDTH 17 0
BBX 15 22 1 0
BITMAP
00000690
00000FF4
00001FF8
00001FF8
00001FF8
00001FF8
00001FF8
006A5FF8
02FFEFF8
0FFFFFF8
2FFFFFF8
7FFFFFF8
BFF5BFF8
FFC02FF8
FF801FF8
FFC02FF8
FFE07FF8
BFFFFFF8
3FFFFFF8
1FFFFFF8
07FFFFF8
00AE8BE0
ENDCHAR
STARTCHAR e
ENCODING 101
SWIDTH 573 0
DWIDTH 16 0
BBX 16 16 0 -1
BITMAP
001BFE00
01FFFFD0
07FFFFF4
1FFFFFF8
2FFE6FFC
3FF40BFD
7FF55BFD
7FFFFFFC
7FFFFFF4
3FF55540
2FF90190
1FFFFFF4
0BFFFFF8
02FFFFF4
006FFFE0
00015400
ENDCHAR
STARTCHAR f
ENCODING 102
SWIDTH 450 0
DWIDTH 13 0
BBX 13 22 0 0
BITMAP
0006A400
002FFD00
00BFFD00
01FFFD00
02FFFC00
03FF5000
03FF0000
1BFFA900
7FFFFF00
BFFFFF40
BFFFFF00
7FFFFE00
03FF1000
03FF0000
03FF0000
03FF0000
03FF0000
03FF0000
03FF0000
03FF0000
03FE0000
01FD0000
ENDCHAR
STARTCHAR g
ENCODING 103
SWIDTH 585 0
DWIDTH 16 0
BBX 16 22 0 -7
BITMAP
001A82A4
01FFFBFC
07FFFFFD
0FFFFFFD
2FFFFFFD
3FF82FFD
7FE00FFD
7FE00BFD
7FE00FFD
3FF96FFD
2FFFFFFD
0FFFFFFD
07FFFFFD
00BFFBFD
00164BFD
01400FFC
07F56FFC
0BFFFFF4
0FFFFFE0
07FFFF80
00BFFD00
00055000
ENDCHAR
STARTCHAR h
ENCODING 104
SWIDTH 605 0
DWIDTH 17 0
BBX 15 22 1 0
BITMAP
2A000000
BFC00000
FFC00000
FFC00000
FFC00000
FFC00000
FFC00000
FFC6A400
FFDFFE00
FFFFFFC0
FFFFFFE0
FFFFFFF4
FFF57FF8
FFD01FF8
FFC00FF8
FFC00FF8
FFC00FF8
FFC00FF8
FFC00FF8
FFC00FF8
BFC00FF8
7F4007F4
ENDCHAR
STARTCHAR i
ENCODING 105
SWIDTH 255 0
DWIDTH 7 0
BBX 5 22 1 0
BITMAP
2A00
BFC0
FFC0
FFC0
BF80
0500
0000
6A40
BFC0
FFC0
FFC0
FFC0
FFC0
FFC0
FFC0
FFC0
FFC0
FFC0
FFC0
FFC0
BFC0
7F40
ENDCHAR
STARTCHAR j
ENCODING 106
SWIDTH 252 0
DWIDTH 7 0
BBX 10 29 -4 -7
BITMAP
000680
002FE0
003FF0
003FF0
001FE0
000100
000000
001A90
002FE0
003FF0
003FF0
003FF0
003FF0
003FF0
003FF0
003FF0
003FF0
003FF0
003FF0
003FF0
003FF0
003FF0
007FE0
16FFE0
7FFFC0
BFFF40
BFFD00
7FE400
150000
ENDCHAR
STARTCHAR k
ENCODING 107
SWIDTH 536 0
DWIDTH 15 0
BBX 14 22 1 0
BITMAP
2A400000
BFC00000
FFC00000
FFC00000
FFC00000
FFC00000
FFC00000
FFC00000
FFC07D00
FFC2FF00
FFCBFF80
FFEFFF40
FFFFFD00
FFFFF400
FFFFC000
FFFFE000
FFFFFD00
FFEFFF40
FFCBFFD0
FFC2FFD0
BFC0BFC0
7F401F40
ENDCHAR
STARTCHAR l
ENCODING 108
SWIDTH 327 0
DWIDTH 9 0
BBX 8 22 1 0
BITMAP
2A40
BFC0
FFC0
FFC0
FFC0
FFC0
FFC0
FFC0
FFC0
FFC0
FFC0
FFC0
FFC0
FFC0
FFC0
FFC0
FFC0
BFE8
BFFE
7FFE
3FFE
0BFD
ENDCHAR
STARTCHAR m
ENCODING 109
SWIDTH 851 0
DWIDTH 24 0
BBX 22 15 1 0
BITMAP
2A46A406A400
BF9FFD2FFE00
FFFFFFBFFF80
FFFFFFFFFFC0
FFFFFFFFFFD0
FFE5FFF5FFE0
FFD0BFE07FE0
FFC0BFD07FE0
FFC0BFD07FE0
FFC0BFD07FE0
FFC0BFD07FE0
FFC0BFD07FE0
FFC0BFD07FE0
BFC07FD03FE0
7F402F802FD0
ENDCHAR
STARTCHAR n
ENCODING 110
SWIDTH 606 0
DWIDTH 17 0
BBX 15 15 1 0
BITMAP
6A46A400
BFEFFE00
FFFFFFC0
FFFFFFE0
FFFFFFF4
FFF57FF8
FFD01FF8
FFC00FF8
FFC00FFC
FFC00FFC
FFC00FFC
FFC00FFC
FFC00FFC
BFC00FF8
7F4007F4
ENDCHAR
STARTCHAR o
ENCODING 111
SWIDTH 600 0
DWIDTH 17 0
BBX 16 16 0 -1
BITMAP
001BF900
01FFFFD0
07FFFFF4
0FFFFFFC
2FFFFFFD
3FF80BFE
7FF003FF
7FE003FF
7FF003FF
3FF40BFF
2FFFBFFE
1FFFFFFC
07FFFFF4
01FFFFD0
002FFE00
00004000
ENDCHAR
STARTCHAR p
ENCODING 112
SWIDTH 582 0
DWIDTH 16 0
BBX 15 22 1 -7
BITMAP
6A46A000
BFEFFD00
FFFFFF80
FFFFFFD0
FFFFFFF0
FFF47FF4
FFD01FF8
FFC01FF8
FFD02FF4
FFF57FF4
FFFFFFF0
FFFFFFD0
FFFFFF40
FFEFFD00
FFC69000
FFC00000
FFC00000
FFC00000
FFC00000
FFC00000
BF800000
15000000
ENDCHAR
STARTCHAR q
ENCODING 113
SWIDTH 582 0
DWIDTH 16 0
BBX 16 22 0 -7
BITMAP
001A82A4
01FFFBFC
07FFFFFC
0FFFFFFD
2FFFFFFD
3FF86FFD
7FE00FFD
7FE00BFD
7FE00FFD
3FF96FFD
2FFFFFFD
0FFFFFFD
07FFFFFD
01FFFBFD
001A4BFD
00000BFD
00000BFD
00000BFD
00000BFD
00000BFC
000007FC
00000150
ENDCHAR
STARTCHAR r
ENCODING 114
SWIDTH 457 0
DWIDTH 13 0
BBX 12 15 1 0
BITMAP
6A46E4
BFEFFD
FFFFFD
FFFFFC
FFFFF8
FFE010
FFC000
FFC000
FFC000
FFC000
FFC000
FFC000
FFC000
BFC000
7F4000
ENDCHAR
STARTCHAR s
ENCODING 115
SWIDTH 489 0
DWIDTH 14 0
BBX 13 16 0 -1
BITMAP
01BFE400
0BFFFF00
1FFFFF40
2FFFFE00
2FE01800
2FF94000
1FFFF800
0FFFFF00
02FFFF80
006BFFC0
1F40BFC0
3FFAFFC0
7FFFFF80
2FFFFF00
06FFF800
00140000
ENDCHAR
STARTCHAR t
ENCODING 116
SWIDTH 449 0
DWIDTH 13 0
BBX 12 20 0 0
BITMAP
01A900
03FE00
03FF00
03FF00
03FF00
2BFFA9
7FFFFF
BFFFFF
BFFFFF
7FFFFE
03FF10
03FF00
03FF00
03FF00
03FF00
03FFA4
02FFFD
01FFFD
00BFFD
001BF8
ENDCHAR
STARTCHAR u
ENCODING 117
SWIDTH 606 0
DWIDTH 17 0
BBX 15 15 1 0
BITMAP
6A4006A4
BFC00FF8
FFC00FFC
FFC00FFC
FFC00FFC
FFC00FFC
FFC00FFC
FFC00FFC
BFD01FFC
BFE06FFC
7FFFFFFC
3FFFFFFC
1FFFFFFC
07FFEFF8
00AE47F4
ENDCHAR
STARTCHAR v
ENCODING 118
SWIDTH 638 0
DWIDTH 18 0
BBX 18 15 0 0
BITMAP
1B80002E00
7FD0007FC0
BFE000FFD0
7FF401FFC0
2FF803FF80
0FFD07FF00
0BFF0FFD00
03FF6FF800
01FFFFF400
00BFFFE000
007FFFC000
002FFF4000
000FFF0000
0007FD0000
0002F80000
ENDCHAR
STARTCHAR w
ENCODING 119
SWIDTH 793 0
DWIDTH 22 0
BBX 22 15 0 0
BITMAP
1B800A401E40
7FD03FD03FD0
BFE07FE07FE0
7FF0BFF0BFD0
2FF5FFF4FFC0
1FFAFFF9FF80
0FFFFFFFFF40
0BFFFFFFFE00
07FFFFFFFD00
02FFFAFFFC00
01FFF5FFF800
00FFF0FFF400
00BFE07FE000
003FD03FD000
001F801F8000
ENDCHAR
STARTCHAR x
ENCODING 120
SWIDTH 567 0
DWIDTH 16 0
BBX 16 15 0 0
BITMAP
0B4001E0
3FD007F8
BFF41FFD
7FFD7FFD
2FFFFFF4
0BFFFFD0
02FFFF40
00BFFE00
01FFFF40
07FFFFD0
1FFFFFF4
7FFEBFFC
BFF82FFD
7FE00BFC
1F4002F4
ENDCHAR
STARTCHAR y
ENCODING 121
SWIDTH 604 0
DWIDTH 17 0
BBX 17 22 0 -7
BITMAP
1B8000B900
7FD001FF40
BFF002FF40
3FF407FF00
2FFC0BFE00
0FFE0FFD00
07FF6FF800
02FFFFF400
00FFFFF000
00BFFFD000
003FFFC000
001FFF8000
000BFF0000
000BFE0000
000FFD0000
002FF80000
003FF40000
007FE00000
00FFD00000
00FFC00000
00BF400000
0019000000
ENDCHAR
STARTCHAR z
ENCODING 122
SWIDTH 586 0
DWIDTH 16 0
BBX 16 15 0 0
BITMAP
0AAAAAA0
2FFFFFFC
2FFFFFFD
2FFFFFFC
1FFFFFF8
0002FFD0
000BFF40
002FFD00
00FFF400
07FFD000
1FFFFFF8
3FFFFFFE
7FFFFFFE
3FFFFFFE
1FFFFFFD
ENDCHAR
STARTCHAR braceleft
ENCODING 123
SWIDTH 381 0
DWIDTH 11 0
BBX 11 29 0 -7
BITMAP
000690
002FF0
00BFF4
00FFF0
01FF40
01FE00
01FE00
01FE00
01FE00
01FE00
01FE00
02FE00
2BFD00
7FF800
BFF400
7FFC00
17FD00
01FE00
01FE00
01FE00
01FE00
01FE00
01FE00
01FE00
01FF90
00FFF0
007FF4
001FF0
000140
ENDCHAR
STARTCHAR bar
ENCODING 124
SWIDTH 217 0
DWIDTH 6 0
BBX 4 29 1 -7
BITMAP
29
BE
FF
FF
FF
FF
FF
FF
FF
FF
FF
FF
FF
FF
FF
FF
FF
FF
FF
FF
FF
FF
FF
FF
FF
FF
FF
BE
14
ENDCHAR
STARTCHAR braceright
ENCODING 125
SWIDTH 381 0
DWIDTH 11 0
BBX 11 29 0 -7
BITMAP
2A0000
7FD000
BFF400
7FF800
17FC00
03FC00
03FC00
03FC00
03FC00
03FC00
03FC00
03FD00
02FF90
00FFF4
00BFF4
01FFF0
02FE50
03FC00
03FC00
03FC00
03FC00
03FC00
03FC00
03FC00
2BFC00
7FF800
BFF000
7F8000
150000
ENDCHAR
STARTCHAR asciitilde
ENCODING 126
SWIDTH 651 0
DWIDTH 18 0
BBX 15 7 1 4
BITMAP
00650190
0BFF87F4
2FFFFFFC
7FFFFFF8
BFFFFFF0
2F47FF80
05006500
ENDCHAR
STARTCHAR exclamdown
ENCODING 161
SWIDTH 268 0
DWIDTH 8 0
BBX 6 22 1 -7
BITMAP
0500
7FC0
BFD0
FFD0
BFD0
6F80
0000
0000
6E80
BFD0
BFD0
BFD0
BFD0
BFD0
BFD0
BFD0
BFD0
BFD0
BFD0
BFD0
BFC0
1500
ENDCHAR
STARTCHAR cent
ENCODING 162
SWIDTH 434 0
DWIDTH 12 0
BBX 12 22 0 -3
BITMAP
001A00
002F40
002F40
002F40
002F40
00BFE0
07FFFC
1FFFFD
2FFFFC
3FE0A4
7FC000
7FC000
3FE0A0
2FFFFC
1FFFFD
07FFFC
00BFE0
002F40
002F40
002F40
002F40
000400
ENDCHAR
STARTCHAR sterling
ENCODING 163
SWIDTH 675 0
DWIDTH 19 0
BBX 19 21 0 0
BITMAP
00005A5000
0007FFFD00
002FFFFF80
00BFFFFFE0
01FFFFFFF0
02FF906FE0
03FF000640
03FE000000
03FD000000
6FFFFE0000
BFFFFF0000
BFFFFF0000
6FFFFE0000
00FF800000
00FF800000
00FF800000
02FFAAAA90
07FFFFFFF4
0BFFFFFFF4
0BFFFFFFF4
02FFFFFFE0
ENDCHAR
STARTCHAR currency
ENCODING 164
SWIDTH 677 0
DWIDTH 19 0
BBX 18 22 1 0
BITMAP
1400000500
BD00001F80
FF40007FD0
BFFFFFFF80
7FFFFFFF00
1FFFFFFD00
2FFFFFFE00
3FF95BFF00
7FD001FF40
BF8000BF80
BF8000BF80
BF8000BF80
BF8000BF80
7FC000FF40
7FE406FF00
2FFFFFFE00
1FFFFFFD00
3FFFFFFE00
BFFFFFFF80
FF9415BFC0
FE00002FC0
6800000A00
ENDCHAR
STARTCHAR yen
ENCODING 165
SWIDTH 677 0
DWIDTH 19 0
BBX 19 21 0 0
BITMAP
0640000640
2FC0000FE0
7FE0002FF4
7FF4007FF4
2FFC00FFE0
1FFE02FFD0
07FF47FF40
02FF8BFE00
01FFEFFD00
007FFFF400
003FFFF000
02FFFFFE00
03FFFFFF00
02FFFFFE00
0003FF0000
0057FF5400
02FFFFFE00
03FFFFFF00
01ABFFA900
0003FF0000
0001FD0000
ENDCHAR
STARTCHAR brokenbar
ENCODING 166
SWIDTH 215 0
DWIDTH 6 0
BBX 4 29 1 -7
BITMAP
29
BE
FF
FF
FF
FF
FF
FF
FF
FF
FF
BF
7D
00
00
14
BE
FF
FF
FF
FF
FF
FF
FF
FF
FF
FF
BE
14
ENDCHAR
STARTCHAR section
ENCODING 167
SWIDTH 560 0
DWIDTH 16 0
BBX 15 29 0 -7
BITMAP
00155000
01FFFE40
07FFFFD0
0FFFFFE0
2FFFFFD0
3FF42F80
3FE00100
3FF40000
2FFF9400
0FFFFE40
0BFFFFE0
1FFFFFF4
2FFAFFF8
3FF01FFC
3FF00BFC
2FF91FFC
1FFFFFF8
0BFFFFF0
02FFFFF0
006FFFF8
00017FFC
06000FFC
2FD00FFC
7FF42FF8
3FFFFFF4
1FFFFFE0
07FFFF80
01BFFD00
00054000
ENDCHAR
STARTCHAR dieresis
ENCODING 168
SWIDTH 489 0
DWIDTH 14 0
BBX 13 6 1 16
BITMAP
2A406900
BFC0FF40
FFC1FF80
FFC1FF80
BF80FF40
15001500
ENDCHAR
STARTCHAR copyright
ENCODING 169
SWIDTH 711 0
DWIDTH 20 0
BBX 20 19 0 2
BITMAP
0016BE9400
00BFFFFE00
07FE96BFC0
0FD0140BE0
1F42FF81F4
2E0BFFE0F8
3D2FEBE0BC
7D3F40407C
7D7E00007C
7C7E00007D
7D7F00007C
3D3F96D07C
3E1FFFE0B8
2F07FFD0F4
0F806903F0
07F9006FD0
01FFFFFF40
006FFFF800
0000550000
ENDCHAR
STARTCHAR ordfeminine
ENCODING 170
SWIDTH 445 0
DWIDTH 12 0
BBX 12 11 0 9
BITMAP
01B9B8
0BFFFD
1FFFFD
3FEBFD
7F42FD
7F41FD
3F82FD
2FFFFD
1FFFFD
07FFFD
006464
ENDCHAR
STARTCHAR guillemotleft
ENCODING 171
SWIDTH 668 0
DWIDTH 19 0
BBX 19 15 0 0
BITMAP
0002400140
001FD00BE0
007FE02FF4
01FFE0BFF0
07FF82FFC0
1FFE0BFF00
3FF82FFC00
BFE03FF000
7FF43FF800
2FFD1FFE00
0BFF47FF80
02FFD1FFE0
00BFE07FF4
002FD01FE0
0007400680
ENDCHAR
STARTCHAR logicalnot
ENCODING 172
SWIDTH 526 0
DWIDTH 15 0
BBX 15 10 0 3
BITMAP
15555540
7FFFFFF0
BFFFFFF4
BFFFFFF4
7FFFFFF4
16AAABF4
000007F4
000007F4
000007F4
00000150
ENDCHAR
STARTCHAR registered
ENCODING 174
SWIDTH 711 0
DWIDTH 20 0
BBX 20 19 0 2
BITMAP
0016BE9400
00BFFFFE00
07FE96BFC0
0FD1540BE0
1F4BFF81F4
2E0BFFE0F8
3D0BEBF4BC
7D0BC2F47C
7D0BD7F47C
7C0BFFF07D
7D0BFFD07C
3D0BEBF07C
3E0BC2F4B8
2F0BC1F5F4
0F814057F0
07F9016FD0
01FFFFFF40
006FFFF800
0000550000
ENDCHAR
STARTCHAR degree
ENCODING 176
SWIDTH 407 0
DWIDTH 11 0
BBX 11 11 0 11
BITMAP
005400
07FF80
1FFFE0
3FEFF4
7F43F8
7F02F8
7F42F8
3FEFF4
1FFFE0
07FF80
006900
ENDCHAR
STARTCHAR plusminus
ENCODING 177
SWIDTH 505 0
DWIDTH 14 0
BBX 14 16 0 0
BITMAP
00010000
002FC000
003FC000
003FD000
2FFFFFC0
7FFFFFD0
7FFFFFD0
3FFFFFC0
003FD000
003FC000
002F8000
00000000
1BFFFE40
3FFFFFC0
3FFFFFC0
1FFFFF80
ENDCHAR
STARTCHAR twosuperior
ENCODING 178
SWIDTH 455 0
DWIDTH 13 0
BBX 13 15 0 6
BITMAP
01BF8000
0BFFF000
1FFFFC00
3FFFFD00
7FD2FE00
7FC1FE00
3F82FE00
190BFD00
007FF800
07FFE000
1FFF9000
3FFFFF00
7FFFFF40
3FFFFF40
1FFFFE00
ENDCHAR
STARTCHAR threesuperior
ENCODING 179
SWIDTH 457 0
DWIDTH 13 0
BBX 12 15 0 6
BITMAP
01BF90
07FFF4
1FFFFD
2FFBFE
1FC1FE
0642FE
002FFD
007FFC
003FFE
2F41FF
7FC0FF
3FEBFF
2FFFFD
0BFFF8
02FFD0
ENDCHAR
STARTCHAR acute
ENCODING 180
SWIDTH 605 0
DWIDTH 17 0
BBX 9 6 4 16
BITMAP
001900
06FF00
7FFF40
BFFF40
7FF900
3E4000
ENDCHAR
STARTCHAR mu
ENCODING 181
SWIDTH 601 0
DWIDTH 17 0
BBX 15 21 1 -6
BITMAP
6A4006A0
BFC00FF8
FFC00FF8
FFC00FF8
FFC00FF8
FFC00FF8
FFC00FF8
FFC01FF8
FFD01FF8
FFE47FF8
FFFFFFF8
FFFFFFF8
FFFFFFF8
FFFFEFF8
FFDA46A0
FFC00000
FFC00000
FFC00000
FFC00000
FFC00000
7F800000
ENDCHAR
STARTCHAR paragraph
ENCODING 182
SWIDTH 614 0
DWIDTH 17 0
BBX 15 25 1 -7
BITMAP
00155500
2FFFFFF4
BFFFFFF8
FFFFEBF8
FFFF87F8
FFFF87F8
FFFF87F8
FFFF87F8
BFFF87F8
3FFF87F8
06BF87F8
007F87F8
007F87F8
007F87F8
007F87F8
007F87F8
007F87F8
007F87F8
007F87F8
007F87F8
007F87F8
007F87F8
003F87F8
003F43F4
00150150
ENDCHAR
STARTCHAR periodcentered
ENCODING 183
SWIDTH 237 0
DWIDTH 7 0
BBX 6 6 0 6
BITMAP
0500
3FD0
7FF0
7FF0
3FE0
2FD0
ENDCHAR
STARTCHAR cedilla
ENCODING 184
SWIDTH 559 0
DWIDTH 16 0
BBX 6 7 5 -6
BITMAP
6A00
FF80
BBD0
17D0
FFC0
BF40
1400
ENDCHAR
STARTCHAR onesuperior
ENCODING 185
SWIDTH 321 0
DWIDTH 9 0
BBX 8 15 0 6
BITMAP
0069
01FE
0BFF
2FFF
7FFF
7FFF
2FFF
01FF
01FF
01FF
01FF
01FF
01FF
01FF
00BD
ENDCHAR
STARTCHAR ordmasculine
ENCODING 186
SWIDTH 439 0
DWIDTH 12 0
BBX 12 11 0 9
BITMAP
00AA40
07FFE0
1FFFF8
3FEBFD
7F81FD
7F40FE
7F81FE
3FEBFD
1FFFF8
0BFFE0
01BE40
ENDCHAR
STARTCHAR guillemotright
ENCODING 187
SWIDTH 669 0
DWIDTH 19 0
BBX 19 15 0 0
BITMAP
0500050000
2F801FC000
7FE03FF000
7FF83FFC00
1FFE0FFF00
07FF83FFC0
01FFD0FFE0
007FF03FF4
00FFE0BFF0
03FF82FFD0
0FFE0BFF40
3FF82FFD00
7FE03FF400
7F802FD000
1A000A4000
ENDCHAR
STARTCHAR onequarter
ENCODING 188
SWIDTH 786 0
DWIDTH 22 0
BBX 20 23 1 -1
BITMAP
0050002900
03F4003E00
1FF400BC00
7FF401F800
BFF402F000
3FF407E000
03F40BC000
03F41F4000
03F42F0000
03F47D0000
03F4FC6468
02F1F4FCFD
0043E1FCFD
0007D2F8FD
000F82F8FD
002F43F9FD
003E07FFFD
00BD07FFFD
00F802AAFD
02F00000FD
07E00000FD
0BC00000B8
0640000000
ENDCHAR
STARTCHAR onehalf
ENCODING 189
SWIDTH 804 0
DWIDTH 23 0
BBX 20 23 1 -1
BITMAP
0050002900
03F4003E00
1FF400BC00
7FF401F800
BFF402F000
3FF407E000
03F40BC000
03F41F4000
03F42F0000
03F47D0000
03F4FC2A80
02F1F5FFF4
0043E3FFFC
0007D7FAFD
000F87F0FD
002F47E1FD
003E000BFC
00BD007FF4
00F802FFD4
02F007FFFE
07E007FFFE
0BC002FFFE
0640000000
ENDCHAR
STARTCHAR threequarters
ENCODING 190
SWIDTH 842 0
DWIDTH 24 0
BBX 21 23 1 -1
BITMAP
015400038000
0BFE000BC000
2FFF800F8000
3FAFC02F4000
2E0FC03E0000
00AF80BC0000
01FF81F80000
14AFD2F00000
BE0FD7E00000
7FAFDBC00000
3FFF9F4A4A40
1FFE3F1F9FC0
01547D2F9FC0
0000FC3F5FC0
0001F47F1FC0
0003E07F6FC0
0007D0BFFFC0
000F80BFFFC0
002F406AAFC0
003E00001FC0
00BC00001FC0
00F800000B80
006000000000
ENDCHAR
STARTCHAR questiondown
ENCODING 191
SWIDTH 511 0
DWIDTH 14 0
BBX 14 22 0 -7
BITMAP
001A8000
007FE000
007FF000
007FF000
003FE000
00054000
00000000
00054000
003FD000
00BFD000
07FFD000
1FFFC000
2FFE0000
3FE00000
7FC01F80
7FD02FE0
3FF5BFE0
2FFFFFD0
0FFFFF80
07FFFF00
00BFF400
00010000
ENDCHAR
STARTCHAR Agrave
ENCODING 192
SWIDTH 765 0
DWIDTH 21 0
BBX 21 28 0 -1
BITMAP
000790000000
000FFE400000
000FFFF00000
000FFFF00000
0001BFE00000
000006900000
000015000000
00007F800000
0000BFD00000
0001FFE00000
0002FFF40000
0007FFF80000
000BFFFD0000
001FFFFE0000
002FFFFF0000
007FF7FF8000
00BFE1FFC000
01FFD0FFE000
02FFEABFF000
03FFFFFFF800
0BFFFFFFFC00
0FFFFFFFFE00
2FFEAAABFF00
3FF40003FF40
7FF00002FFC0
7FD00000FF80
1F8000007E00
010000001000
ENDCHAR
STARTCHAR Aacute
ENCODING 193
SWIDTH 765 0
DWIDTH 21 0
BBX 21 28 0 -1
BITMAP
000006FC0000
0000BFFD0000
0001FFFE0000
0001FFF90000
0000FE400000
000050000000
000015000000
00007F800000
0000BFD00000
0001FFE00000
0002FFF40000
0007FFF80000
000BFFFD0000
001FFFFE0000
002FFFFF0000
007FF7FF8000
00BFE1FFC000
01FFD0FFE000
02FFEABFF000
03FFFFFFF800
0BFFFFFFFC00
0FFFFFFFFE00
2FFEAAABFF00
3FF40003FF40
7FF00002FFC0
7FD00000FF80
1F8000007E00
010000001000
ENDCHAR
STARTCHAR Acircumflex
ENCODING 194
SWIDTH 765 0
DWIDTH 21 0
BBX 21 29 0 -1
BITMAP
000004000000
0001BF900000
001FFFFE0000
003FFFFF4000
002FFFFF0000
000B907D0000
000000000000
000015000000
00007F800000
0000BFD00000
0001FFE00000
0002FFF40000
0007FFF80000
000BFFFD0000
001FFFFE0000
002FFFFF0000
007FF7FF8000
00BFE1FFC000
01FFD0FFE000
02FFEABFF000
03FFFFFFF800
0BFFFFFFFC00
0FFFFFFFFE00
2FFEAAABFF00
3FF40003FF40
7FF00002FFC0
7FD00000FF80
1F8000007E00
010000001000
ENDCHAR
STARTCHAR Atilde
ENCODING 195
SWIDTH 765 0
DWIDTH 21 0
BBX 21 29 0 -1
BITMAP
000050040000
0007FD2E0000
001FFFFF4000
002FFFFF0000
002FAFFD0000
000A06A00000
000000000000
000015000000
00007F800000
0000BFD00000
0001FFE00000
0002FFF40000
0007FFF80000
000BFFFD0000
001FFFFE0000
002FFFFF0000
007FF7FF8000
00BFE1FFC000
01FFD0FFE000
02FFEABFF000
03FFFFFFF800
0BFFFFFFFC00
0FFFFFFFFE00
2FFEAAABFF00
3FF40003FF40
7FF00002FFC0
7FD00000FF80
1F8000007E00
010000001000
ENDCHAR
STARTCHAR Adieresis
ENCODING 196
SWIDTH 765 0
DWIDTH 21 0
BBX 21 29 0 -1
BITMAP
000500050000
003FC0BF8000
007FD0FFC000
007FE0FFC000
007FD0BFC000
002A806A4000
000000000000
000015000000
00007F800000
0000BFD00000
0001FFE00000
0002FFF40000
0007FFF80000
000BFFFD0000
001FFFFE0000
002FFFFF0000
007FF7FF8000
00BFE1FFC000
01FFD0FFE000
02FFEABFF000
03FFFFFFF800
0BFFFFFFFC00
0FFFFFFFFE00
2FFEAAABFF00
3FF40003FF40
7FF00002FFC0
7FD00000FF80
1F8000007E00
010000001000
ENDCHAR
STARTCHAR Aring
ENCODING 197
SWIDTH 765 0
DWIDTH 21 0
BBX 21 27 0 -1
BITMAP
00001A400000
0000FFD00000
0002E5F00000
0003C0B40000
0003C0B40000
0002F6F00000
0000BFD00000
0000BFD00000
0001FFE00000
0002FFF40000
0007FFF80000
000BFFFD0000
001FFFFE0000
002FFFFF0000
007FF7FF8000
00BFE1FFC000
01FFD0FFE000
02FFEABFF000
03FFFFFFF800
0BFFFFFFFC00
0FFFFFFFFE00
2FFEAAABFF00
3FF40003FF40
7FF00002FFC0
7FD00000FF80
1F8000007E00
010000001000
ENDCHAR
STARTCHAR AE
ENCODING 198
SWIDTH 1148 0
DWIDTH 32 0
BBX 32 22 0 -1
BITMAP
000000006AAAAAA4
00000007FFFFFFFD
0000001FFFFFFFFD
0000003FFFFFFFFD
000000FFFFFFFFFD
000002FFFF955554
00000BFFFF400000
00002FFFFF400000
0000BFFEFFEAA900
0001FFF6FFFFFF40
0007FFD2FFFFFF40
001FFF42FFFFFF40
007FFE56FFFFFF00
01FFFFFFFF955400
03FFFFFFFF400000
0FFFFFFFFF400000
2FFFAAABFFFFFFF8
BFFC0002FFFFFFFD
FFF00002FFFFFFFD
BFD00001FFFFFFFD
2F4000007FFFFFF8
0400000000000000
ENDCHAR
STARTCHAR Ccedilla
ENCODING 199
SWIDTH 679 0
DWIDTH 19 0
BBX 19 27 0 -6
BITMAP
00006A9400
000BFFFE40
007FFFFFE0
01FFFFFFF4
07FFFFFFF0
0FFFE56FE0
1FFE000680
2FF8000000
3FF0000000
7FE0000000
7FE0000000
7FE0000000
3FF0000000
3FF4000000
2FFD000100
1FFF401BC0
0BFFFAFFE0
02FFFFFFF4
00BFFFFFF0
001FFFFF90
0001BFF900
00007FD000
00003FE000
000012F000
00003FE000
00003FC000
0000050000
ENDCHAR
STARTCHAR Egrave
ENCODING 200
SWIDTH 638 0
DWIDTH 18 0
BBX 16 27 1 0
BITMAP
00290000
007FF900
00BFFF40
00BFFF40
001BFF00
00001900
1AAAAAA4
BFFFFFFF
BFFFFFFF
FFFFFFFF
FFFFFFFF
FFD55554
FFC00000
FFC00000
FFEAAA40
FFFFFFC0
FFFFFFC0
FFFFFFC0
FFFFFF80
FFD55400
FFC00000
FFC00000
FFFFFFFD
FFFFFFFF
FFFFFFFF
BFFFFFFF
7FFFFFFE
ENDCHAR
STARTCHAR Eacute
ENCODING 201
SWIDTH 638 0
DWIDTH 18 0
BBX 16 28 1 0
BITMAP
00000100
00006F40
001FFF80
007FFF80
007FFF40
003F9400
00040000
1AAAAAA4
BFFFFFFF
BFFFFFFF
FFFFFFFF
FFFFFFFF
FFD55554
FFC00000
FFC00000
FFEAAA40
FFFFFFC0
FFFFFFC0
FFFFFFC0
FFFFFF80
FFD55400
FFC00000
FFC00000
FFFFFFFD
FFFFFFFF
FFFFFFFF
BFFFFFFF
7FFFFFFE
ENDCHAR
STARTCHAR Ecircumflex
ENCODING 202
SWIDTH 638 0
DWIDTH 18 0
BBX 16 27 1 0
BITMAP
001BF900
06FFFFD0
0BFFFFE0
07FFFFD0
02E41B80
00000000
1AAAAAA4
BFFFFFFF
BFFFFFFF
FFFFFFFF
FFFFFFFF
FFD55554
FFC00000
FFC00000
FFEAAA40
FFFFFFC0
FFFFFFC0
FFFFFFC0
FFFFFF80
FFD55400
FFC00000
FFC00000
FFFFFFFD
FFFFFFFF
FFFFFFFF
BFFFFFFF
7FFFFFFE
ENDCHAR
STARTCHAR Edieresis
ENCODING 203
SWIDTH 638 0
DWIDTH 18 0
BBX 16 28 1 0
BITMAP
00400140
0BF81FF0
0FFC1FF4
0FFC1FF8
0FF81FF4
06A40AA0
00000000
1AAAAAA4
BFFFFFFF
BFFFFFFF
FFFFFFFF
FFFFFFFF
FFD55554
FFC00000
FFC00000
FFEAAA40
FFFFFFC0
FFFFFFC0
FFFFFFC0
FFFFFF80
FFD55400
FFC00000
FFC00000
FFFFFFFD
FFFFFFFF
FFFFFFFF
BFFFFFFF
7FFFFFFE
ENDCHAR
STARTCHAR Igrave
ENCODING 204
SWIDTH 267 0
DWIDTH 7 0
BBX 9 27 -2 0
BITMAP
1E4000
3FF900
7FFF80
7FFF80
06FF80
001A00
006400
02FF00
02FF40
02FF40
02FF40
02FF40
02FF40
02FF40
02FF40
02FF40
02FF40
02FF40
02FF40
02FF40
02FF40
02FF40
02FF40
02FF40
02FF40
02FF00
01BE00
ENDCHAR
STARTCHAR Iacute
ENCODING 205
SWIDTH 269 0
DWIDTH 8 0
BBX 9 28 0 0
BITMAP
000100
006F40
1FFF80
7FFF80
7FFF40
2FA400
040000
064000
1FF000
2FF400
2FF400
2FF400
2FF400
2FF400
2FF400
2FF400
2FF400
2FF400
2FF400
2FF400
2FF400
2FF400
2FF400
2FF400
2FF400
2FF400
2FF400
1BE000
ENDCHAR
STARTCHAR Icircumflex
ENCODING 206
SWIDTH 270 0
DWIDTH 8 0
BBX 12 28 -2 0
BITMAP
001000
06FE40
7FFFF8
BFFFFD
BFFFFC
2E41F4
000000
006400
01FF00
02FF40
02FF40
02FF40
02FF40
02FF40
02FF40
02FF40
02FF40
02FF40
02FF40
02FF40
02FF40
02FF40
02FF40
02FF40
02FF40
02FF40
02FF40
01BE00
ENDCHAR
STARTCHAR Idieresis
ENCODING 207
SWIDTH 268 0
DWIDTH 8 0
BBX 13 28 -3 0
BITMAP
05000500
3FD07F80
7FE0FFC0
7FE0FFC0
7FD0BFC0
1A802A40
00000000
00194000
007FC000
00BFD000
00BFD000
00BFD000
00BFD000
00BFD000
00BFD000
00BFD000
00BFD000
00BFD000
00BFD000
00BFD000
00BFD000
00BFD000
00BFD000
00BFD000
00BFD000
00BFD000
00BFD000
002F8000
ENDCHAR
STARTCHAR Eth
ENCODING 208
SWIDTH 775 0
DWIDTH 22 0
BBX 21 21 0 0
BITMAP
006AA9400000
02FFFFF90000
03FFFFFF8000
03FFFFFFF000
03FFFFFFF800
03FF56BFFE00
03FF001FFF00
03FF0003FF40
07FF4001FF80
3FFFF400FFC0
7FFFF400FFC0
7FFFF400FFC0
1BFF9001FF80
03FF0002FF80
03FF000BFF40
03FF006FFE00
03FFFFFFFD00
03FFFFFFF400
03FFFFFFD000
02FFFFFE4000
01FFFFA40000
ENDCHAR
STARTCHAR Ntilde
ENCODING 209
SWIDTH 720 0
DWIDTH 20 0
BBX 18 28 1 0
BITMAP
0001004000
002FE1F000
00BFFFF800
01FFFFF400
01FDFFE000
00642A4000
0000000000
1500000540
BFC0002FE0
FFE0003FF0
FFF8003FF0
FFFD003FF0
FFFF003FF0
FFFF803FF0
FFFFD03FF0
FFFFF43FF0
FFEFFC3FF0
FFDFFE3FF0
FFC7FF7FF0
FFC2FFFFF0
FFC0BFFFF0
FFC03FFFF0
FFC01FFFF0
FFC00BFFF0
FFC002FFF0
FFC000FFF0
BFC0007FF0
7F40001FD0
ENDCHAR
STARTCHAR Ograve
ENCODING 210
SWIDTH 775 0
DWIDTH 22 0
BBX 21 28 0 -1
BITMAP
000290000000
000BFE400000
000BFFF40000
000BFFF40000
0001BFF00000
000006900000
00006A900000
001BFFFE0000
007FFFFFD000
01FFFFFFF400
07FFFFFFFC00
0FFF95BFFE00
1FFE000BFF40
2FF80003FF80
3FF00001FF80
7FE00000FFC0
7FE00000FFC0
7FE00000FFC0
3FF00001FFC0
3FF40002FF80
2FFC0007FF40
1FFF401FFF00
0BFFFAFFFD00
03FFFFFFF800
00FFFFFFE000
002FFFFF8000
0006FFF90000
000015400000
ENDCHAR
STARTCHAR Oacute
ENCODING 211
SWIDTH 775 0
DWIDTH 22 0
BBX 21 28 0 -1
BITMAP
000006FC0000
0000BFFD0000
0002FFFE0000
0001FFF80000
0000FE400000
000050000000
00006A900000
001BFFFE0000
007FFFFFD000
01FFFFFFF400
07FFFFFFFC00
0FFF95BFFE00
1FFE000BFF40
2FF80003FF80
3FF00001FF80
7FE00000FFC0
7FE00000FFC0
7FE00000FFC0
3FF00001FFC0
3FF40002FF80
2FFC0007FF40
1FFF401FFF00
0BFFFAFFFD00
03FFFFFFF800
00FFFFFFE000
002FFFFF8000
0006FFF90000
000015400000
ENDCHAR
STARTCHAR Ocircumflex
ENCODING 212
SWIDTH 775 0
DWIDTH 22 0
BBX 21 29 0 -1
BITMAP
000004000000
0001BFA40000
001FFFFE0000
002FFFFF4000
001FFFFF4000
000B906E0000
000000000000
00006A900000
001BFFFE0000
007FFFFFD000
01FFFFFFF400
07FFFFFFFC00
0FFF95BFFE00
1FFE000BFF40
2FF80003FF80
3FF00001FF80
7FE00000FFC0
7FE00000FFC0
7FE00000FFC0
3FF00001FFC0
3FF40002FF80
2FFC0007FF40
1FFF401FFF00
0BFFFAFFFD00
03FFFFFFF800
00FFFFFFE000
002FFFFF8000
0006FFF90000
000015400000
ENDCHAR
STARTCHAR Otilde
ENCODING 213
SWIDTH 775 0
DWIDTH 22 0
BBX 21 29 0 -1
BITMAP
000010000000
0001FE0F4000
0007FFFFC000
000FFFFF8000
000FEBFF0000
000241A80000
000000000000
00006A900000
001BFFFE0000
007FFFFFD000
01FFFFFFF400
07FFFFFFFC00
0FFF95BFFE00
1FFE000BFF40
2FF80003FF80
3FF00001FF80
7FE00000FFC0
7FE00000FFC0
7FE00000FFC0
3FF00001FFC0
3FF40002FF80
2FFC0007FF40
1FFF401FFF00
0BFFFAFFFD00
03FFFFFFF800
00FFFFFFE000
002FFFFF8000
0006FFF90000
000015400000
ENDCHAR
STARTCHAR Odieresis
ENCODING 214
SWIDTH 775 0
DWIDTH 22 0
BBX 21 29 0 -1
BITMAP
000500040000
007FC0BF8000
007FD0FFC000
00BFD0FFC000
007FD0FFC000
002A406A4000
000000000000
00006A900000
001BFFFE0000
007FFFFFD000
01FFFFFFF400
07FFFFFFFC00
0FFF95BFFE00
1FFE000BFF40
2FF80003FF80
3FF00001FF80
7FE00000FFC0
7FE00000FFC0
7FE00000FFC0
3FF00001FFC0
3FF40002FF80
2FFC0007FF40
1FFF401FFF00
0BFFFAFFFD00
03FFFFFFF800
00FFFFFFE000
002FFFFF8000
0006FFF90000
000015400000
ENDCHAR
STARTCHAR multiply
ENCODING 215
SWIDTH 521 0
DWIDTH 15 0
BBX 14 13 0 1
BITMAP
0B400B40
2FD02FD0
7FF4BFE0
2FFEFFD0
0BFFFF40
02FFFE00
00FFF800
02FFFD00
0BFFFF40
2FFFFFD0
7FF4BFE0
3FD02FE0
1F400B80
ENDCHAR
STARTCHAR Oslash
ENCODING 216
SWIDTH 775 0
DWIDTH 22 0
BBX 21 24 0 -2
BITMAP
0000000A4000
00006AAFE000
001BFFFFF000
007FFFFFE000
01FFFFFFF400
07FFFFFFFC00
0FFF97FFFE00
1FFE07FFFF00
2FF80FFFFF40
3FF01FF9FF80
3FE03FF4FFC0
7FE07FE0FFC0
7FE0BFD0FFC0
7FF1FF81FFC0
3FF6FF42FF80
2FFFFF07FF40
1FFFFD1FFF00
0BFFFEFFFD00
03FFFFFFF800
00FFFFFFE000
00BFFFFF8000
00FFFFF90000
007F95400000
000500000000
ENDCHAR
STARTCHAR Ugrave
ENCODING 217
SWIDTH 726 0
DWIDTH 20 0
BBX 19 28 1 -1
BITMAP
00A9000000
01FFE40000
01FFFE0000
01FFFE0000
001BFD0000
0000680000
1900000640
BFC0002FF0
FFC0002FF4
FFC0002FF4
FFC0002FF4
FFC0002FF4
FFC0002FF4
FFC0002FF4
FFC0002FF4
FFC0002FF4
FFC0002FF4
FFC0002FF4
BFD0003FF0
BFD0003FF0
7FF000BFE0
3FF801FFD0
2FFFAFFFC0
0FFFFFFF40
07FFFFFE00
01FFFFF800
002FFF9000
0000540000
ENDCHAR
STARTCHAR Uacute
ENCODING 218
SWIDTH 726 0
DWIDTH 20 0
BBX 19 28 1 -1
BITMAP
00001BF000
0002FFF400
000BFFF800
0007FFE000
0003F90000
0001400000
1900000640
BFC0002FF0
FFC0002FF4
FFC0002FF4
FFC0002FF4
FFC0002FF4
FFC0002FF4
FFC0002FF4
FFC0002FF4
FFC0002FF4
FFC0002FF4
FFC0002FF4
BFD0003FF0
BFD0003FF0
7FF000BFE0
3FF801FFD0
2FFFAFFFC0
0FFFFFFF40
07FFFFFE00
01FFFFF800
002FFF9000
0000540000
ENDCHAR
STARTCHAR Ucircumflex
ENCODING 219
SWIDTH 726 0
DWIDTH 20 0
BBX 19 29 1 -1
BITMAP
0000100000
0006FE4000
00BFFFF800
00FFFFFC00
00BFEFF800
007E02F400
0000000000
1900000640
BFC0002FF0
FFC0002FF4
FFC0002FF4
FFC0002FF4
FFC0002FF4
FFC0002FF4
FFC0002FF4
FFC0002FF4
FFC0002FF4
FFC0002FF4
FFC0002FF4
BFD0003FF0
BFD0003FF0
7FF000BFE0
3FF801FFD0
2FFFAFFFC0
0FFFFFFF40
07FFFFFE00
01FFFFF800
002FFF9000
0000540000
ENDCHAR
STARTCHAR Udieresis
ENCODING 220
SWIDTH 726 0
DWIDTH 20 0
BBX 19 29 1 -1
BITMAP
0050005000
02FE07FC00
03FF0BFD00
03FF0BFD00
03FE07FD00
01A902A400
0000000000
1900000640
BFC0002FF0
FFC0002FF4
FFC0002FF4
FFC0002FF4
FFC0002FF4
FFC0002FF4
FFC0002FF4
FFC0002FF4
FFC0002FF4
FFC0002FF4
FFC0002FF4
BFD0003FF0
BFD0003FF0
7FF000BFE0
3FF801FFD0
2FFFAFFFC0
0FFFFFFF40
07FFFFFE00
01FFFFF800
002FFF9000
0000540000
ENDCHAR
STARTCHAR Yacute
ENCODING 221
SWIDTH 686 0
DWIDTH 19 0
BBX 19 28 0 0
BITMAP
0000004000
00001BE000
0006FFF000
000FFFF400
000BFFE000
0007F90000
0001400000
0640000680
3FD0000FF4
BFF0002FF8
7FF4007FF8
2FFC00FFF0
0FFE02FFD0
07FF47FF80
02FFCBFF00
00FFFFFD00
007FFFF800
002FFFF000
000FFFD000
0007FF8000
0003FF0000
0003FF0000
0003FF0000
0003FF0000
0003FF0000
0003FF0000
0002FF0000
0001FE0000
ENDCHAR
STARTCHAR Thorn
ENCODING 222
SWIDTH 634 0
DWIDTH 18 0
BBX 16 21 1 0
BITMAP
19000000
BFC00000
FFC00000
FFEAA400
FFFFFF40
FFFFFFE0
FFFFFFF8
FFFFFFFD
FFD55FFE
FFC007FF
FFC003FF
FFC003FF
FFC00BFE
FFEABFFD
FFFFFFFC
FFFFFFF4
FFFFFFD0
FFFFFD00
FFD50000
BFC00000
7F400000
ENDCHAR
STARTCHAR germandbls
ENCODING 223
SWIDTH 633 0
DWIDTH 18 0
BBX 16 22 1 -1
BITMAP
01BFF900
1FFFFF80
3FFFFFD0
BFFFFFD0
BFE47FD0
FFC07FD0
FFC1FFC0
FFC2FF40
FFC3FD00
FFC7FD00
FFC3FF40
FFC2FFE0
FFC0BFF8
FFC02FFD
FFC007FE
FFC002FF
FFC297FF
FFC7FFFF
FFCBFFFE
FFCBFFFC
BFC2FFE0
6E400000
ENDCHAR
STARTCHAR agrave
ENCODING 224
SWIDTH 596 0
DWIDTH 17 0
BBX 16 22 0 0
BITMAP
00190000
003FE400
007FFF80
007FFF80
001BFF80
00006F00
00000000
001A91A8
01FFFBFD
07FFFFFE
0FFFFFFE
2FFFFFFE
3FF96FFE
7FF00BFE
7FE00BFE
7FE00BFE
3FF81FFE
2FFFFFFE
1FFFFFFE
07FFFFFE
01FFFBFD
002F92F8
ENDCHAR
STARTCHAR aacute
ENCODING 225
SWIDTH 596 0
DWIDTH 17 0
BBX 16 22 0 0
BITMAP
00000640
0001BF80
002FFFC0
003FFFC0
002FFE40
001F9000
00000000
001A91A8
01FFFBFD
07FFFFFE
0FFFFFFE
2FFFFFFE
3FF96FFE
7FF00BFE
7FE00BFE
7FE00BFE
3FF81FFE
2FFFFFFE
1FFFFFFE
07FFFFFE
01FFFBFD
002F92F8
ENDCHAR
STARTCHAR acircumflex
ENCODING 226
SWIDTH 596 0
DWIDTH 17 0
BBX 16 22 0 0
BITMAP
0001A400
006FFF90
01FFFFF8
01FFFFF8
00FF9FF4
00640190
00000000
001A91A8
01FFFBFD
07FFFFFE
0FFFFFFE
2FFFFFFE
3FF96FFE
7FF00BFE
7FE00BFE
7FE00BFE
3FF81FFE
2FFFFFFE
1FFFFFFE
07FFFFFE
01FFFBFD
002F92F8
ENDCHAR
STARTCHAR atilde
ENCODING 227
SWIDTH 596 0
DWIDTH 17 0
BBX 16 22 0 0
BITMAP
00064090
007FF6F4
00FFFFF8
01FFFFF0
00F8BFD0
00101500
00000000
001A91A8
01FFFBFD
07FFFFFE
0FFFFFFE
2FFFFFFE
3FF96FFE
7FF00BFE
7FE00BFE
7FE00BFE
3FF81FFE
2FFFFFFE
1FFFFFFE
07FFFFFE
01FFFBFD
002F92F8
ENDCHAR
STARTCHAR adieresis
ENCODING 228
SWIDTH 596 0
DWIDTH 17 0
BBX 16 22 0 0
BITMAP
01A801A4
03FE07FD
03FF0BFD
03FE0BFD
03FE07FC
00540050
00000000
001A91A8
01FFFBFD
07FFFFFE
0FFFFFFE
2FFFFFFE
3FF96FFE
7FF00BFE
7FE00BFE
7FE00BFE
3FF81FFE
2FFFFFFE
1FFFFFFE
07FFFFFE
01FFFBFD
002F92F8
ENDCHAR
STARTCHAR aring
ENCODING 229
SWIDTH 596 0
DWIDTH 17 0
BBX 16 21 0 0
BITMAP
0001F800
0007AE00
000B0B00
000B0B00
0003FD00
0000A400
001A91A8
01FFFBFD
07FFFFFE
0FFFFFFE
2FFFFFFE
3FF96FFE
7FF00BFE
7FE00BFE
7FE00BFE
3FF81FFE
2FFFFFFE
1FFFFFFE
07FFFFFE
01FFFBFD
002F92F8
ENDCHAR
STARTCHAR ae
ENCODING 230
SWIDTH 910 0
DWIDTH 25 0
BBX 25 16 0 -1
BITMAP
006FE401BE8000
07FFFF6FFFF800
1FFFFFFFFFFE00
3FFFFFFFFFFF40
2FFEBFFFE6FF80
0BE02FFF00FF80
01400FFE56FF80
01AA9FFFFFFF40
1FFFFFFFFFFE00
3FFABFFE000000
7FC00BFF806800
7FD06FFFFFFE00
3FFFFFFFFFFF00
2FFFFD3FFFFE00
07FFE406FFE400
00140000040000
ENDCHAR
STARTCHAR ccedilla
ENCODING 231
SWIDTH 524 0
DWIDTH 15 0
BBX 14 21 0 -6
BITMAP
001BF900
01FFFFD0
07FFFFF0
0FFFFFF0
2FFFFFD0
3FF91B80
7FF00000
7FF00000
7FF00000
3FF80A40
2FFFFFD0
1FFFFFE0
07FFFFF0
01FFFFD0
002FFE00
001FF400
000EFC00
0005BC00
001FF800
000FF400
00014000
ENDCHAR
STARTCHAR egrave
ENCODING 232
SWIDTH 573 0
DWIDTH 16 0
BBX 16 23 0 -1
BITMAP
00240000
00BFA400
00FFFE00
00FFFF00
002FFF00
00006D00
00000000
001BFE00
01FFFFD0
07FFFFF4
1FFFFFF8
2FFE6FFC
3FF40BFD
7FF55BFD
7FFFFFFC
7FFFFFF4
3FF55540
2FF90190
1FFFFFF4
0BFFFFF8
02FFFFF4
006FFFE0
00015400
ENDCHAR
STARTCHAR eacute
ENCODING 233
SWIDTH 573 0
DWIDTH 16 0
BBX 16 23 0 -1
BITMAP
00000600
0006FF80
003FFFC0
007FFFC0
003FFA00
001E4000
00000000
001BFE00
01FFFFD0
07FFFFF4
1FFFFFF8
2FFE6FFC
3FF40BFD
7FF55BFD
7FFFFFFC
7FFFFFF4
3FF55540
2FF90190
1FFFFFF4
0BFFFFF8
02FFFFF4
006FFFE0
00015400
ENDCHAR
STARTCHAR ecircumflex
ENCODING 234
SWIDTH 573 0
DWIDTH 16 0
BBX 16 23 0 -1
BITMAP
00019000
006FFE40
03FFFFE0
07FFFFE0
02FE6FD0
00900640
00000000
001BFE00
01FFFFD0
07FFFFF4
1FFFFFF8
2FFE6FFC
3FF40BFD
7FF55BFD
7FFFFFFC
7FFFFFF4
3FF55540
2FF90190
1FFFFFF4
0BFFFFF8
02FFFFF4
006FFFE0
00015400
ENDCHAR
STARTCHAR edieresis
ENCODING 235
SWIDTH 573 0
DWIDTH 16 0
BBX 16 23 0 -1
BITMAP
06A00690
0FF81FF4
1FF82FF4
1FF82FF4
0FF41FF0
01500140
00000000
001BFE00
01FFFFD0
07FFFFF4
1FFFFFF8
2FFE6FFC
3FF40BFD
7FF55BFD
7FFFFFFC
7FFFFFF4
3FF55540
2FF90190
1FFFFFF4
0BFFFFF8
02FFFFF4
006FFFE0
00015400
ENDCHAR
STARTCHAR igrave
ENCODING 236
SWIDTH 255 0
DWIDTH 7 0
BBX 9 22 -2 0
BITMAP
190000
3FE400
7FFF80
7FFFC0
1BFF80
006F40
000000
01A900
02FF00
03FF00
03FF00
03FF00
03FF00
03FF00
03FF00
03FF00
03FF00
03FF00
03FF00
03FF00
02FF00
01FD00
ENDCHAR
STARTCHAR iacute
ENCODING 237
SWIDTH 255 0
DWIDTH 7 0
BBX 9 22 0 0
BITMAP
001900
06FF40
7FFF80
7FFF80
7FF900
2E4000
000000
1A9000
2FF000
3FF000
3FF000
3FF000
3FF000
3FF000
3FF000
3FF000
3FF000
3FF000
3FF000
3FF000
2FF000
1FD000
ENDCHAR
STARTCHAR icircumflex
ENCODING 238
SWIDTH 255 0
DWIDTH 7 0
BBX 11 22 -2 0
BITMAP
006400
1BFF90
FFFFFC
FFFFFC
BF9BF8
1900A0
000000
01A900
02FF00
03FF00
03FF00
03FF00
03FF00
03FF00
03FF00
03FF00
03FF00
03FF00
03FF00
03FF00
02FF00
01FD00
ENDCHAR
STARTCHAR idieresis
ENCODING 239
SWIDTH 255 0
DWIDTH 7 0
BBX 13 22 -3 0
BITMAP
1A406A00
BFC0FF80
BFD0FFC0
BFD0FFC0
7FC0BF80
15001500
00000000
002A4000
00BFC000
00FFC000
00FFC000
00FFC000
00FFC000
00FFC000
00FFC000
00FFC000
00FFC000
00FFC000
00FFC000
00FFC000
00BFC000
007F4000
ENDCHAR
STARTCHAR eth
ENCODING 240
SWIDTH 585 0
DWIDTH 16 0
BBX 16 24 0 -1
BITMAP
00001400
0014BC00
007FF800
00BFF400
007FFE00
002FFF40
007EBFD0
002C1FF0
000557F4
007FFBF8
02FFFFFC
0BFFFFFD
1FFFFFFE
3FF96FFE
3FF00BFE
7FE007FE
7FE007FE
3FF40BFD
2FFEBFFC
1FFFFFF8
0BFFFFE0
02FFFF80
006FFD00
00014000
ENDCHAR
STARTCHAR ntilde
ENCODING 241
SWIDTH 606 0
DWIDTH 17 0
BBX 15 22 1 0
BITMAP
00690600
02FF9FC0
0BFFFFC0
0FFFFF80
07D7FE00
01405400
00000000
6A46A400
BFEFFE00
FFFFFFC0
FFFFFFE0
FFFFFFF4
FFF57FF8
FFD01FF8
FFC00FF8
FFC00FFC
FFC00FFC
FFC00FFC
FFC00FFC
FFC00FFC
BFC00FF8
7F4007F4
ENDCHAR
STARTCHAR ograve
ENCODING 242
SWIDTH 600 0
DWIDTH 17 0
BBX 16 23 0 -1
BITMAP
00290000
007FE400
00BFFF40
00BFFF40
001BFF40
00006E00
00000000
001BF900
01FFFFD0
07FFFFF4
0FFFFFFC
2FFFFFFD
3FF80BFE
7FF003FF
7FE003FF
7FF003FF
3FF40BFF
2FFFBFFE
1FFFFFFC
07FFFFF4
01FFFFD0
002FFE00
00004000
ENDCHAR
STARTCHAR oacute
ENCODING 243
SWIDTH 600 0
DWIDTH 17 0
BBX 16 23 0 -1
BITMAP
00000600
0001BF80
002FFFC0
003FFFC0
002FFE40
001E9000
00000000
001BF900
01FFFFD0
07FFFFF4
0FFFFFFC
2FFFFFFD
3FF80BFE
7FF003FF
7FE003FF
7FF003FF
3FF40BFF
2FFFBFFE
1FFFFFFC
07FFFFF4
01FFFFD0
002FFE00
00004000
ENDCHAR
STARTCHAR ocircumflex
ENCODING 244
SWIDTH 600 0
DWIDTH 17 0
BBX 16 23 0 -1
BITMAP
00019000
006FFE40
03FFFFF0
03FFFFF0
02FE6FE0
00A40680
00000000
001BF900
01FFFFD0
07FFFFF4
0FFFFFFC
2FFFFFFD
3FF80BFE
7FF003FF
7FE003FF
7FF003FF
3FF40BFF
2FFFBFFE
1FFFFFFC
07FFFFF4
01FFFFD0
002FFE00
00004000
ENDCHAR
STARTCHAR otilde
ENCODING 245
SWIDTH 600 0
DWIDTH 17 0
BBX 16 23 0 -1
BITMAP
001A4140
00BFE7E0
02FFFFF0
03FFFFD0
02F1FF80
00401400
00000000
001BF900
01FFFFD0
07FFFFF4
0FFFFFFC
2FFFFFFD
3FF80BFE
7FF003FF
7FE003FF
7FF003FF
3FF40BFF
2FFFBFFE
1FFFFFFC
07FFFFF4
01FFFFD0
002FFE00
00004000
ENDCHAR
STARTCHAR odieresis
ENCODING 246
SWIDTH 600 0
DWIDTH 17 0
BBX 16 23 0 -1
BITMAP
02A00690
0FF81FF4
0FFC1FF8
0FFC1FF8
0BF80FF4
01500140
00000000
001BF900
01FFFFD0
07FFFFF4
0FFFFFFC
2FFFFFFD
3FF80BFE
7FF003FF
7FE003FF
7FF003FF
3FF40BFF
2FFFBFFE
1FFFFFFC
07FFFFF4
01FFFFD0
002FFE00
00004000
ENDCHAR
STARTCHAR divide
ENCODING 247
SWIDTH 503 0
DWIDTH 14 0
BBX 14 16 0 0
BITMAP
00050000
003FC000
007FD000
007FD000
003FC000
00050000
1AAAAA40
7FFFFFD0
7FFFFFD0
3FFFFFD0
05555500
001A4000
003FC000
007FD000
003FD000
002F8000
ENDCHAR
STARTCHAR oslash
ENCODING 248
SWIDTH 600 0
DWIDTH 17 0
BBX 16 24 0 -5
BITMAP
000002E4
000007FD
00000BFD
00001FFC
001BFFF4
01FFFFF0
07FFFFF0
0FFFFFFC
2FFFFFFD
3FF80BFE
7FF003FF
7FE003FF
7FE003FF
3FF40BFF
2FFFBFFE
1FFFFFFC
07FFFFF4
03FFFFD0
07FFFE00
0FFD4000
1FF80000
1FF40000
0BE00000
00400000
ENDCHAR
STARTCHAR ugrave
ENCODING 249
SWIDTH 606 0
DWIDTH 17 0
BBX 15 22 1 0
BITMAP
00A40000
01FF9000
02FFFD00
02FFFD00
006FFD00
0001B800
00000000
6A4006A4
BFC00FF8
FFC00FFC
FFC00FFC
FFC00FFC
FFC00FFC
FFC00FFC
FFC00FFC
BFD01FFC
BFE06FFC
7FFFFFFC
3FFFFFFC
1FFFFFFC
07FFEFF8
00AE47F4
ENDCHAR
STARTCHAR uacute
ENCODING 250
SWIDTH 606 0
DWIDTH 17 0
BBX 15 22 1 0
BITMAP
00001900
0006FF40
007FFF40
00BFFF40
007FF900
002E4000
00000000
6A4006A4
BFC00FF8
FFC00FFC
FFC00FFC
FFC00FFC
FFC00FFC
FFC00FFC
FFC00FFC
BFD01FFC
BFE06FFC
7FFFFFFC
3FFFFFFC
1FFFFFFC
07FFEFF8
00AE47F4
ENDCHAR
STARTCHAR ucircumflex
ENCODING 251
SWIDTH 606 0
DWIDTH 17 0
BBX 15 22 1 0
BITMAP
00064000
01BFF900
0BFFFFC0
0FFFFFC0
07F9BF80
01900A00
00000000
6A4006A4
BFC00FF8
FFC00FFC
FFC00FFC
FFC00FFC
FFC00FFC
FFC00FFC
FFC00FFC
BFD01FFC
BFE06FFC
7FFFFFFC
3FFFFFFC
1FFFFFFC
07FFEFF8
00AE47F4
ENDCHAR
STARTCHAR udieresis
ENCODING 252
SWIDTH 606 0
DWIDTH 17 0
BBX 15 22 1 0
BITMAP
0A901A40
2FF03FE0
3FF07FE0
3FF07FE0
2FE03FD0
05400540
00000000
6A4006A4
BFC00FF8
FFC00FFC
FFC00FFC
FFC00FFC
FFC00FFC
FFC00FFC
FFC00FFC
BFD01FFC
BFE06FFC
7FFFFFFC
3FFFFFFC
1FFFFFFC
07FFEFF8
00AE47F4
ENDCHAR
STARTCHAR yacute
ENCODING 253
SWIDTH 604 0
DWIDTH 17 0
BBX 17 29 0 -7
BITMAP
0000064000
0001BFC000
001FFFD000
002FFFD000
001FFE4000
000F900000
0000000000
1B8000B900
7FD001FF40
BFF002FF40
3FF407FF00
2FFC0BFE00
0FFE0FFD00
07FF6FF800
02FFFFF400
00FFFFF000
00BFFFD000
003FFFC000
001FFF8000
000BFF0000
000BFE0000
000FFD0000
002FF80000
003FF40000
007FE00000
00FFD00000
00FFC00000
00BF400000
0019000000
ENDCHAR
STARTCHAR thorn
ENCODING 254
SWIDTH 580 0
DWIDTH 16 0
BBX 15 29 1 -7
BITMAP
7F400000
BF800000
FF800000
FF800000
FF800000
FF800000
FF800000
FF8A9000
FFFFFD00
FFFFFF40
FFFFFFD0
FFFFFFE0
FFE5BFF4
FFC02FF4
FF801FF8
FFC02FF4
FFE07FF4
FFFFFFF0
FFFFFFD0
FFFFFF80
FFFFFE00
FF9BE400
FF800000
FF800000
FF800000
FF800000
BF800000
BF400000
15000000
ENDCHAR
STARTCHAR ydieresis
ENCODING 255
SWIDTH 604 0
DWIDTH 17 0
BBX 17 29 0 -7
BITMAP
01A402A000
07FD0FF800
0BFD0FFC00
0BFD0FFC00
07FC0BF800
0050015000
0000000000
1B8000B900
7FD001FF40
BFF002FF40
3FF407FF00
2FFC0BFE00
0FFE0FFD00
07FF6FF800
02FFFFF400
00FFFFF000
00BFFFD000
003FFFC000
001FFF8000
000BFF0000
000BFE0000
000FFD0000
002FF80000
003FF40000
007FE00000
00FFD00000
00FFC00000
00BF400000
0019000000
ENDCHAR
STARTCHAR dotlessi
ENCODING 305
SWIDTH 255 0
DWIDTH 7 0
BBX 5 15 1 0
BITMAP
6A40
BFC0
FFC0
FFC0
FFC0
FFC0
FFC0
FFC0
FFC0
FFC0
FFC0
FFC0
FFC0
BFC0
7F40
ENDCHAR
STARTCHAR Lslash
ENCODING 321
SWIDTH 687 0
DWIDTH 19 0
BBX 19 21 0 0
BITMAP
0019000000
00FF800000
00FFC00000
00FFC00000
00FFC00000
00FFC00000
00FFC00000
00FFDB4000
00FFFF8000
06FFFFC000
3FFFFE4000
7FFFD00000
3FFFC00000
04FFC00000
00FFC00000
00FFC00000
00FFC00000
00FFFFFFF4
00FFFFFFF8
00FFFFFFF4
007FFFFFF4
ENDCHAR
STARTCHAR lslash
ENCODING 322
SWIDTH 468 0
DWIDTH 13 0
BBX 13 22 0 0
BITMAP
00690000
00FF4000
01FF8000
01FF8000
01FF8000
01FF8000
01FF8000
01FF8000
01FFAB00
01FFFF80
1BFFFF80
7FFFFE00
7FFF9000
3FFF8000
01FF8000
01FF8000
01FF8000
01FFE800
00FFFD00
00FFFD00
007FFD00
001BF800
ENDCHAR
STARTCHAR OE
ENCODING 338
SWIDTH 1092 0
DWIDTH 31 0
BBX 30 21 0 0
BITMAP
00005AAAAAAAAA40
000BFFFFFFFFFFE0
007FFFFFFFFFFFF0
01FFFFFFFFFFFFE0
07FFFFFFFFFFFFE0
0FFFE55FFD555540
1FFE001FF8000000
2FF8001FF8000000
3FF0001FFEAAA000
7FE0001FFFFFF800
7FE0001FFFFFF800
7FE0001FFFFFF800
3FF0001FFFFFF400
3FF4001FF9554000
2FFD001FF8000000
0FFF401FF8000000
0BFFFFFFFFFFFFD0
02FFFFFFFFFFFFE0
00BFFFFFFFFFFFF0
001FFFFFFFFFFFE0
0001BFFFFFFFFFD0
ENDCHAR
STARTCHAR oe
ENCODING 339
SWIDTH 944 0
DWIDTH 26 0
BBX 26 16 0 -1
BITMAP
001BF900AFA000
01FFFF9BFFFE00
07FFFFFFFFFF80
0FFFFFFFFFFFC0
2FFFFFFFF5BFE0
3FF81BFFC03FE0
7FF003FF95BFE0
7FE003FFFFFFD0
7FE003FFFFFF80
3FF40BFF800000
2FFEBFFFE01A00
1FFFFFFFFFFF80
07FFFFFFFFFFC0
01FFFFDFFFFF80
006FFE01BFF900
00015000010000
ENDCHAR
STARTCHAR Scaron
ENCODING 352
SWIDTH 583 0
DWIDTH 16 0
BBX 16 29 0 -1
BITMAP
00400100
02F92FC0
07FFFFE0
07FFFFE0
02FFFF90
001BE400
00000000
002AA900
02FFFF80
0BFFFFF0
1FFFFFF4
2FFEBFF0
3FF40BD0
3FF00100
2FF80000
2FFFA400
0FFFFF80
07FFFFF4
00BFFFFC
0006FFFD
00001FFE
0B8007FE
2FE00BFE
7FFD6FFD
3FFFFFFC
1FFFFFF4
07FFFFD0
00BFFE00
00014000
ENDCHAR
STARTCHAR scaron
ENCODING 353
SWIDTH 489 0
DWIDTH 14 0
BBX 13 23 0 -1
BITMAP
0A402800
2FE6FE00
3FFFFF00
3FFFFF00
06FFE400
00190000
00000000
01BFE400
0BFFFF00
1FFFFF40
2FFFFE00
2FE01800
2FF94000
1FFFF800
0FFFFF00
02FFFF80
006BFFC0
1F40BFC0
3FFAFFC0
7FFFFF80
2FFFFF00
06FFF800
00140000
ENDCHAR
STARTCHAR Ydieresis
ENCODING 376
SWIDTH 686 0
DWIDTH 19 0
BBX 19 28 0 0
BITMAP
0014005000
01FF02FD00
02FF43FF00
02FF43FF00
02FF03FE00
00A901A800
0000000000
0640000680
3FD0000FF4
BFF0002FF8
7FF4007FF8
2FFC00FFF0
0FFE02FFD0
07FF47FF80
02FFCBFF00
00FFFFFD00
007FFFF800
002FFFF000
000FFFD000
0007FF8000
0003FF0000
0003FF0000
0003FF0000
0003FF0000
0003FF0000
0003FF0000
0002FF0000
0001FE0000
ENDCHAR
STARTCHAR Zcaron
ENCODING 381
SWIDTH 643 0
DWIDTH 18 0
BBX 18 28 0 0
BITMAP
0010004000
00FE0BE000
01FFFFF400
02FFFFF800
00BFFFE000
0006F90000
0000000000
1AAAAAA900
3FFFFFFF40
7FFFFFFFC0
7FFFFFFF80
3FFFFFFF40
05556FFE00
00007FFC00
0000BFF400
0002FFD000
0007FF8000
000FFF0000
002FFD0000
007FF80000
01FFE00000
03FFD00000
0BFF400000
1FFFAAAA40
3FFFFFFFC0
7FFFFFFFD0
3FFFFFFFD0
1FFFFFFF80
ENDCHAR
STARTCHAR zcaron
ENCODING 382
SWIDTH 586 0
DWIDTH 16 0
BBX 16 22 0 0
BITMAP
00A00640
02FE6FE0
03FFFFF0
03FFFFF0
006FFE40
00019000
00000000
0AAAAAA0
2FFFFFFC
2FFFFFFD
2FFFFFFC
1FFFFFF8
0002FFD0
000BFF40
002FFD00
00FFF400
07FFD000
1FFFFFF8
3FFFFFFE
7FFFFFFE
3FFFFFFE
1FFFFFFD
ENDCHAR
STARTCHAR florin
ENCODING 402
SWIDTH 529 0
DWIDTH 15 0
BBX 15 28 0 -7
BITMAP
00001AA0
0000BFF4
0002FFF4
000BFFF4
000FFFE0
001FF800
001FF400
02FFFEE0
0BFFFFF4
0BFFFFF4
0BFFFFF4
07FFFFE0
003FE000
003FE000
007FE000
007FD000
007FD000
00BFD000
00BFC000
00BFC000
00FFC000
00FF8000
16FF8000
7FFF4000
BFFE0000
FFFC0000
BFE00000
15000000
ENDCHAR
STARTCHAR circumflex
ENCODING 710
SWIDTH 603 0
DWIDTH 17 0
BBX 11 6 3 16
BITMAP
006400
1BFF90
FFFFFC
FFFFFC
BF9BF8
2801A0
ENDCHAR
STARTCHAR caron
ENCODING 711
SWIDTH 600 0
DWIDTH 17 0
BBX 11 6 3 16
BITMAP
280190
BF9BF8
FFFFFC
FFFFFC
1BFF90
006400
ENDCHAR
STARTCHAR dotaccent
ENCODING 729
SWIDTH 285 0
DWIDTH 8 0
BBX 6 6 1 19
BITMAP
1A40
3FD0
7FE0
7FE0
3FD0
0500
ENDCHAR
STARTCHAR ring
ENCODING 730
SWIDTH 378 0
DWIDTH 11 0
BBX 8 8 1 18
BITMAP
06A0
1FFC
3D6E
780F
780F
3E7E
1FF8
0150
ENDCHAR
STARTCHAR ogonek
ENCODING 731
SWIDTH 570 0
DWIDTH 16 0
BBX 6 7 5 -6
BITMAP
1A40
7FD0
FEC0
F940
BFD0
7FD0
0500
ENDCHAR
STARTCHAR tilde
ENCODING 732
SWIDTH 584 0
DWIDTH 16 0
BBX 12 6 2 16
BITMAP
069060
2FF9FC
7FFFFD
BFFFF8
7D2FE0
040540
ENDCHAR
STARTCHAR endash
ENCODING 8211
SWIDTH 561 0
DWIDTH 16 0
BBX 16 5 0 5
BITMAP
2FFFFFF8
BFFFFFFD
BFFFFFFD
7FFFFFFC
1AAAAAA4
ENDCHAR
STARTCHAR emdash
ENCODING 8212
SWIDTH 693 0
DWIDTH 19 0
BBX 19 5 0 5
BITMAP
2FFFFFFFF4
BFFFFFFFFC
BFFFFFFFFC
7FFFFFFFFC
1AAAAAAAA4
ENDCHAR
STARTCHAR quoteleft
ENCODING 8216
SWIDTH 237 0
DWIDTH 7 0
BBX 6 10 0 11
BITMAP
0050
07F0
0FD0
2F40
3F00
3FD0
7FF0
7FF0
7FF0
2FD0
ENDCHAR
STARTCHAR quoteright
ENCODING 8217
SWIDTH 237 0
DWIDTH 7 0
BBX 6 10 0 11
BITMAP
0640
3FE0
7FF0
7FF0
3FE0
1BE0
0BD0
0FC0
3F40
7D00
ENDCHAR
STARTCHAR quotesinglbase
ENCODING 8218
SWIDTH 237 0
DWIDTH 7 0
BBX 6 11 0 -5
BITMAP
0100
2FD0
7FF0
7FF0
7FF0
2FE0
07D0
0BC0
2F80
7E00
1400
ENDCHAR
STARTCHAR quotedblleft
ENCODING 8220
SWIDTH 482 0
DWIDTH 14 0
BBX 13 10 0 11
BITMAP
00500140
07F01F80
0FD03F40
2F40BD00
3F00FC00
3FD1FF40
7FF1FF80
7FF1FF80
7FF1FF80
2FD0BF40
ENDCHAR
STARTCHAR quotedblright
ENCODING 8221
SWIDTH 482 0
DWIDTH 14 0
BBX 13 10 0 11
BITMAP
06405900
3FE1FF80
7FF1FF80
7FF1FF80
3FE1FF80
1BE07F80
0BD02F40
0FC07E00
3F41FD00
7D01F400
ENDCHAR
STARTCHAR quotedblbase
ENCODING 8222
SWIDTH 482 0
DWIDTH 14 0
BBX 13 11 0 -5
BITMAP
01000400
2FD0FF40
7FF1FF80
7FF1FF80
7FF1FF80
2FE0BF80
07D02F40
0BC03F00
2F80FD00
7E01F800
14005000
ENDCHAR
STARTCHAR dagger
ENCODING 8224
SWIDTH 527 0
DWIDTH 15 0
BBX 15 27 0 -6
BITMAP
001F9000
003FE000
003FE000
003FE000
003FE000
003FE000
157FF540
7FFFFFF0
BFFFFFF4
BFFFFFF4
7FFFFFE0
003FE000
003FE000
003FE000
003FE000
003FE000
003FE000
003FE000
003FE000
003FE000
003FE000
003FE000
003FE000
003FE000
003FE000
002FD000
00054000
ENDCHAR
STARTCHAR daggerdbl
ENCODING 8225
SWIDTH 527 0
DWIDTH 15 0
BBX 15 27 0 -6
BITMAP
001F9000
003FE000
003FE000
003FE000
003FE000
003FE000
157FF540
7FFFFFF0
BFFFFFF4
BFFFFFF4
7FFFFFE0
003FE000
003FE000
003FE000
003FE000
2ABFFA90
7FFFFFF4
BFFFFFF4
7FFFFFF4
2ABFFA90
003FE000
003FE000
003FE000
003FE000
003FE000
002FD000
00054000
ENDCHAR
STARTCHAR bullet
ENCODING 8226
SWIDTH 342 0
DWIDTH 10 0
BBX 9 9 0 4
BITMAP
06F900
2FFF40
3FFF80
7FFF80
7FFFC0
3FFF80
2FFF40
0BFD00
005000
ENDCHAR
STARTCHAR ellipsis
ENCODING 8230
SWIDTH 911 0
DWIDTH 26 0
BBX 25 6 0 0
BITMAP
01000040000400
2FD007F800FF40
7FF00BFD01FF80
7FF00FFD01FF80
3FF00BFD01FF80
2FD007F800BE40
ENDCHAR
STARTCHAR perthousand
ENCODING 8240
SWIDTH 1223 0
DWIDTH 34 0
BBX 32 23 1 -1
BITMAP
0000000280000000
01A40007D0000000
1FFF000FC0000000
3FFF801F40000000
BFBFD03E00000000
BD0BD0BD00000000
FD0BE0F800000000
BD0BE2F400000000
BFAFD3E000000000
7FFFCBC000000000
1FFF4F8000000000
06A92F0150000540
00007E1FFE007FF4
0000BC3FFF81FFFD
0001F4BFFFC3FFFE
0002F0FD0FD7F47F
0007D0FC0BD7E03F
000FC0FC0BD7E03F
001F40BE6FD3F9BF
003F007FFFC2FFFE
007D002FFF41FFFC
00F8000BF9002FE0
0064000000000000
ENDCHAR
STARTCHAR guilsinglleft
ENCODING 8249
SWIDTH 383 0
DWIDTH 11 0
BBX 11 15 0 0
BITMAP
000640
001FE0
007FF4
01FFF0
07FFD0
1FFF40
3FFD00
BFF400
7FFC00
1FFF00
07FFC0
01FFF0
007FF4
001FE0
000780
ENDCHAR
STARTCHAR guilsinglright
ENCODING 8250
SWIDTH 383 0
DWIDTH 11 0
BBX 11 15 0 0
BITMAP
0A0000
2FC000
7FF000
7FFC00
2FFF00
0BFFC0
02FFE0
00BFF4
01FFF0
07FFD0
1FFF40
7FFD00
7FF400
3FD000
1F4000
ENDCHAR
STARTCHAR fraction
ENCODING 8260
SWIDTH 433 0
DWIDTH 12 0
BBX 14 23 1 -1
BITMAP
00000280
000007D0
00000BC0
00001F40
00003F00
00007D00
0000F800
0001F400
0003E000
000BD000
000F8000
002F4000
003E0000
00BC0000
01F80000
02F00000
07E00000
0BC00000
1F400000
2F000000
7D000000
BC000000
64000000
ENDCHAR
STARTCHAR Euro
ENCODING 8364
SWIDTH 612 0
DWIDTH 17 0
BBX 17 22 0 0
BITMAP
00005AA900
0007FFFF40
002FFFFF40
007FFFFF40
00FFFFFF00
01FFE55400
02FF800000
2BFFAAA400
BFFFFFF800
7FFFFFF800
1BFE555000
07FE000000
7FFFFFF800
BFFFFFFC00
7FFFFFF800
02FF400000
02FFC00000
00FFFFFE00
00BFFFFF40
002FFFFF40
000BFFFF40
0001BFFE00
ENDCHAR
STARTCHAR trademark
ENCODING 8482
SWIDTH 840 0
DWIDTH 24 0
BBX 23 12 0 6
BITMAP
6AAAA0A401A0
BFFFF6FC07F4
BFFFF6FE0FF4
2AFEA2FF6FF4
01FD02FFFFF4
01FD02FFFFF4
01FD02FFFFF4
01FD02FFFBF4
01FD02FCA3F4
01FD02FC03F4
00FC02F803F4
001000500050
ENDCHAR
STARTCHAR minus
ENCODING 8722
SWIDTH 581 0
DWIDTH 16 0
BBX 16 5 0 5
BITMAP
2FFFFFF8
7FFFFFFD
7FFFFFFE
3FFFFFFD
1AAAAAA4
ENDCHAR
STARTCHAR f_f
ENCODING 64256
SWIDTH 803 0
DWIDTH 22 0
BBX 22 22 0 0
BITMAP
0006A4006A40
002FFD03FFD0
00BFFD0FFFD0
01FFFD2FFFD0
02FFFC3FFFC0
03FF403FF400
03FF003FE000
2BFFAABFFA90
7FFFFFFFFFF0
BFFFFFFFFFF0
BFFFFFFFFFF0
7FFFFFFFFFE0
03FF007FE000
03FF003FE000
03FF003FE000
03FF003FE000
03FF003FE000
03FF003FE000
03FF003FE000
03FF003FE000
03FE003FE000
01FD002FD000
ENDCHAR
STARTCHAR fi
ENCODING 64257
SWIDTH 709 0
DWIDTH 20 0
BBX 19 22 0 0
BITMAP
0006A40690
002FFD0FF8
00BFFD0FF8
01FFFD0FF8
02FFFC0BF4
03FF500140
03FF000000
1BFFA906A0
7FFFFF0FF8
BFFFFF4FF8
BFFFFF1FF8
7FFFFE1FF8
03FF101FF8
03FF001FF8
03FF001FF8
03FF001FF8
03FF001FF8
03FF001FF8
03FF001FF8
03FF001FF8
03FE000FF8
01FD000BF4
ENDCHAR
STARTCHAR fl
ENCODING 64258
SWIDTH 774 0
DWIDTH 22 0
BBX 22 22 0 0
BITMAP
0006A4069000
002FFD1FF400
00BFFD1FF800
01FFFD1FF800
02FFFC1FF800
03FF501FF800
03FF001FF800
1BFFA91FF800
7FFFFF1FF800
BFFFFF5FF800
BFFFFF1FF800
7FFFFE1FF800
03FF101FF800
03FF001FF800
03FF001FF800
03FF001FF800
03FF001FF800
03FF001FFE40
03FF001FFFC0
03FF000FFFD0
03FE000BFFD0
01FD0001BF80
ENDCHAR
STARTCHAR f_f_i
ENCODING 64259
SWIDTH 1059 0
DWIDTH 30 0
BBX 29 22 0 0
BITMAP
0006A4006A405500
002FFD03FFD0FF40
00BFFD0FFFD1FF80
01FFFD2FFFD1FF80
02FFFC3FFFC0FF40
03FF403FF4001500
03FF003FE0000000
2BFFAABFFA906900
7FFFFFFFFFF1FF40
BFFFFFFFFFF1FF80
BFFFFFFFFFF1FF80
7FFFFFFFFFE1FF80
03FF007FE001FF80
03FF003FE001FF80
03FF003FE001FF80
03FF003FE001FF80
03FF003FE001FF80
03FF003FE001FF80
03FF003FE001FF80
03FF003FE001FF80
03FE003FE001FF40
01FD002FD000BE00
ENDCHAR
STARTCHAR .notdef
ENCODING -1
SWIDTH 500 0
DWIDTH 14 0
BBX 1 1 0 0
BITMAP
00
ENDCHAR
STARTCHAR .null
ENCODING -1
SWIDTH 0 0
DWIDTH 0 0
BBX 1 1 0 0
BITMAP
00
ENDCHAR
STARTCHAR nonmarkingreturn
ENCODING -1
SWIDTH 333 0
DWIDTH 9 0
BBX 1 1 0 0
BITMAP
00
ENDCHAR
STARTCHAR f_t
ENCODING -1
SWIDTH 814 0
DWIDTH 23 0
BBX 23 22 0 0
BITMAP
0006A4000000
002FFD000000
00BFFD1A9000
01FFFD2FF000
02FFFC2FF000
03FF402FF000
03FF002FF000
2BFFAABFFA90
7FFFFFFFFFF4
BFFFFFFFFFF4
BFFFFFFFFFF4
7FFFFFFFFFF0
03FF002FF540
03FF002FF000
03FF002FF000
03FF002FF000
03FF002FF000
03FF002FFE40
03FF001FFFD0
03FF000FFFE0
03FE0007FFE0
01FD0000AF80
ENDCHAR
STARTCHAR t_t
ENCODING -1
SWIDTH 794 0
DWIDTH 22 0
BBX 22 20 0 0
BITMAP
01A9002A8000
03FE007FD000
03FF007FE000
03FF007FE000
03FF007FE000
2BFFAABFEA80
7FFFFFFFFFE0
BFFFFFFFFFE0
BFFFFFFFFFE0
7FFFFFFFFFD0
03FF057FE100
03FF007FE000
03FF007FE000
03FF007FE000
03FF007FE000
03FFA47FFA40
02FFFD3FFFC0
01FFFD2FFFC0
007FFD0BFFC0
001BF801BF40
ENDCHAR
STARTCHAR l_l
ENCODING -1
SWIDTH 626 0
DWIDTH 18 0
BBX 16 22 1 0
BITMAP
6A406A00
BFC1FF40
FFC1FF80
FFC1FF80
FFC1FF80
FFC1FF80
FFC1FF80
FFC1FF80
FFC1FF80
FFC1FF80
FFC1FF80
FFC1FF80
FFC1FF80
FFC1FF80
FFC1FF80
FFC1FF80
FFC1FF80
BFF5FFFD
BFFCFFFF
7FFCBFFF
2FFC2FFF
06F406F9
ENDCHAR
STARTCHAR j_j
ENCODING -1
SWIDTH 521 0
DWIDTH 15 0
BBX 18 29 -4 -7
BITMAP
0005401540
002FE03FD0
003FF07FD0
003FF07FD0
002FE03FD0
0005400500
0000000000
000A901A40
002FE07FD0
003FF07FD0
003FF07FD0
003FF07FD0
003FF07FD0
003FF07FD0
003FF07FD0
003FF07FD0
003FF07FD0
003FF07FD0
003FF07FD0
003FF07FD0
003FF07FD0
003FF07FD0
007FE07FD0
15FFE1BFD0
7FFFDBFFC0
BFFF8FFF80
BFFE0FFF40
7FF40FFD00
1540015000
ENDCHAR
ENDFONT
